TexturaLibera-Bold-Expand.sfdir
StartChar: quotedbl
Encoding: 34 34 2
Width: 600
Flags: W
HStem: 679 20G<160 200 400 440>
LayerCount: 2
Back
SplineSet
385 635 m 25
 465 555 l 1
 465 475 l 25
 345 355 l 1049
145 635 m 25
 225 555 l 1
 225 475 l 25
 105 355 l 1049
EndSplineSet
Fore
SplineSet
81 600 m 1
 180 699 l 1
 289 590 l 1
 289 510 l 1
 70 291 l 1
 41 320 l 1
 161 440 l 1
 161 520 l 1
 81 600 l 1
321 600 m 1
 420 699 l 1
 529 590 l 1
 529 510 l 1
 310 291 l 1
 281 320 l 1
 401 440 l 1
 401 520 l 1
 321 600 l 1
EndSplineSet
EndChar
StartChar: percent
Encoding: 37 37 5
Width: 840
Flags: W
HStem: -214 21G<5 45 545 585>
VStem: 56 128<461.793 545> 296 128<505 588.207> 416 128<-38.207 45> 656 128<5 88.207>
LayerCount: 2
Back
SplineSet
600 200 m 25
 480 80 l 25
 480 -30 l 25
 600 -150 l 25
 720 -30 l 25
 720 80 l 25
 600 200 l 25
60 -150 m 25
 780 700 l 1049
240 700 m 25
 120 580 l 25
 120 470 l 25
 240 350 l 25
 360 470 l 25
 360 580 l 25
 240 700 l 25
EndSplineSet
Fore
SplineSet
205 636 m 1xe8
 184 615 l 1
 184 505 l 2
 184 456 248 441 275 414 c 1
 296 435 l 1
 296 545 l 2
 296 594 232 609 205 636 c 1xe8
56 545 m 1
 275 764 l 1
 424 615 l 1
 424 505 l 1
 205 286 l 1
 56 435 l 1
 56 545 l 1
25 -214 m 1
 -4 -185 l 1
 716 665 l 1
 815 764 l 1
 844 735 l 1
 124 -115 l 1
 25 -214 l 1
565 136 m 1
 544 115 l 1
 544 5 l 2xd8
 544 -44 608 -59 635 -86 c 1
 656 -65 l 1
 656 45 l 2
 656 94 592 109 565 136 c 1
416 45 m 1
 635 264 l 1
 784 115 l 1
 784 5 l 1
 565 -214 l 1
 416 -65 l 1
 416 45 l 1
EndSplineSet
EndChar
StartChar: ampersand
Encoding: 38 38 6
Width: 600
Flags: W
HStem: 644 20G<255 323>
VStem: 56 128<102 195> 296 128<95 286 414 498>
LayerCount: 2
Back
SplineSet
240 350 m 25
 480 350 l 1049
540 120 m 1
 420 0 l 1
 360 60 l 1
 360 550 l 9
 240 600 l 1
 120 480 l 17
 120 400 l 1
 240 350 l 1
 120 230 l 25
 119 50 l 25
 240 0 l 25
 360 120 l 1041
EndSplineSet
Fore
SplineSet
296 27 m 1
 205 -64 l 1
 84 -14 l 1
 55 15 l 1
 56 195 l 1
 164 303 l 1
 85 336 l 1
 56 365 l 1
 56 445 l 1
 275 664 l 1
 395 614 l 1
 424 585 l 1
 424 414 l 1
 515 414 l 1
 544 385 l 1
 445 286 l 1
 424 286 l 1
 424 95 l 1
 455 64 l 1
 575 184 l 1
 604 155 l 1
 385 -64 l 1
 296 25 l 1
 296 27 l 1
205 286 m 1
 184 265 l 1
 183 102 l 1
 275 64 l 2
 275 64 294 83 296 85 c 2
 296 286 l 1
 205 286 l 1
296 414 m 1
 296 498 l 1
 205 536 l 2
 205 536 186 517 184 515 c 2
 184 452 l 1
 275 414 l 1
 296 414 l 1
EndSplineSet
EndChar
StartChar: parenleft
Encoding: 40 40 8
Width: 300
Flags: W
HStem: -214 21G<182.143 225>
VStem: -4 128<144.372 411.221>
LayerCount: 2
Back
SplineSet
240 700 m 17
 240 700 60 575 60 275 c 0
 60 -25 240 -150 240 -150 c 1033
EndSplineSet
Fore
SplineSet
144 -157 m 2
 92 -105 -4 21 -4 240 c 0
 -4 459 92 585 144 637 c 2
 243 736 l 2
 262 755 275 764 275 764 c 1
 304 735 l 1
 240 671 l 1
 188 606 124 489 124 310 c 0
 124 110 205 -13 258 -72 c 0
 269 -82 275 -86 275 -86 c 2
 304 -115 l 1
 205 -214 l 2
 205 -214 192 -205 173 -186 c 2
 144 -157 l 2
EndSplineSet
EndChar
StartChar: hyphen
Encoding: 45 45 13
Width: 360
Flags: W
HStem: 136 153
VStem: 56 248
LayerCount: 2
Back
SplineSet
120 200 m 25
 240 225 l 1049
EndSplineSet
Fore
SplineSet
56 165 m 1
 155 264 l 1
 275 289 l 1
 304 260 l 1
 205 161 l 1
 85 136 l 1
 56 165 l 1
EndSplineSet
EndChar
StartChar: period
Encoding: 46 46 14
Width: 360
Flags: W
HStem: -64 208
VStem: 76 208
LayerCount: 2
Back
SplineSet
140 80 m 25
 220 0 l 1049
EndSplineSet
Fore
SplineSet
76 45 m 1
 175 144 l 1
 284 35 l 1
 185 -64 l 1
 76 45 l 1
EndSplineSet
EndChar
StartChar: zero
Encoding: 48 48 16
Width: 480
Flags: W
HStem: 444 20G<255 315> 444 20G<255 315>
VStem: 56 128<109 245> 296 128<155 291>
LayerCount: 2
Back
SplineSet
240 400 m 1
 120 280 l 1
 120 60 l 25
 240 0 l 1
 360 120 l 1
 360 340 l 25
 240 400 l 1
EndSplineSet
Fore
SplineSet
205 336 m 1x30
 184 315 l 1
 184 109 l 1
 275 64 l 2
 275 64 294 83 296 85 c 2
 296 291 l 1
 205 336 l 1x30
56 245 m 1
 275 464 l 1xb0
 395 404 l 1
 424 375 l 1
 424 155 l 1
 205 -64 l 1
 85 -4 l 1
 56 25 l 1
 56 245 l 1
EndSplineSet
Substitution2: "Subscript forms-1" zero.inferior
Substitution2: "Superscript forms-1" zero.superior
EndChar
StartChar: one
Encoding: 49 49 17
Width: 480
Flags: W
HStem: 444 20G<225 265> 444 20G<225 265>
VStem: 176 128<115 335>
LayerCount: 2
Back
SplineSet
150 60 m 25
 270 0 l 1
 330 60 l 1049
270 340 m 25
 210 400 l 25
 150 340 l 1049
240 370 m 9
 240 30 l 1025
EndSplineSet
Fore
SplineSet
304 405 m 1xa0
 334 375 l 1
 304 345 l 1
 304 65 l 1
 305 64 l 2
 305 64 359 118 365 124 c 1
 394 95 l 1
 235 -64 l 1
 115 -4 l 1
 86 25 l 1
 176 115 l 1
 176 335 l 1
 175 336 l 1
 115 276 l 1
 86 305 l 1
 245 464 l 1
 275 434 l 1
 304 405 l 1xa0
EndSplineSet
Substitution2: "Subscript forms-1" one.inferior
Substitution2: "Superscript forms-1" one.superior
EndChar
StartChar: six
Encoding: 54 54 22
Width: 480
Flags: W
HStem: 444 20G<255 295> 444 20G<255 295> 511 128<221.397 346.5>
VStem: 56 128<155 315 373 475> 296 128<155 245>
LayerCount: 2
Back
SplineSet
120 280 m 25
 240 400 l 25
 360 280 l 25
 360 120 l 25
 240 0 l 25
 120 120 l 1
 120 510 l 1
 210 600 l 25
 187 610 256 575 300 575 c 3
 334 575 375 610 361 600 c 1049
EndSplineSet
Fore
SplineSet
184 315 m 1x38
 184 155 l 1
 275 64 l 1
 296 85 l 1
 296 245 l 1
 205 336 l 1
 184 315 l 1x38
246 663 m 1
 261 656 304 639 335 639 c 0
 358 639 383 655 394 662 c 0
 395 663 395 663 396 664 c 0
 398 665 399 666 399 666 c 2
 428 637 l 2
 329 538 l 2
 326 535 293 511 265 511 c 0
 239 511 203 524 184 532 c 1
 184 373 l 1
 275 464 l 1xb8
 424 315 l 1
 424 155 l 1
 205 -64 l 1
 56 85 l 1
 56 475 l 1
 145 564 l 1
 141 567 l 2
 240 666 l 2
 240 666 242 665 245 664 c 2
 246 663 l 1
EndSplineSet
Substitution2: "Subscript forms-1" six.inferior
Substitution2: "Superscript forms-1" six.superior
EndChar
StartChar: nine
Encoding: 57 57 25
Width: 480
Flags: W
HStem: -214 128<125 217.387> 444 20G<255 295> 444 20G<255 295>
VStem: 56 128<155 245> 296 128<-105 27 85 245>
LayerCount: 2
Back
SplineSet
360 120 m 1
 240 0 l 1
 120 120 l 25
 120 280 l 25
 240 400 l 25
 360 280 l 1
 360 -140 l 9
 300 -200 l 17
 300 -200 231 -150 180 -150 c 27
 140 -150 90 -200 90 -200 c 1025
EndSplineSet
Fore
SplineSet
296 85 m 1x98
 296 245 l 1
 205 336 l 1
 184 315 l 1
 184 155 l 1
 275 64 l 1
 296 85 l 1x98
296 27 m 1
 205 -64 l 1
 56 85 l 1
 56 245 l 1
 275 464 l 1xd8
 424 315 l 1
 424 -105 l 1
 265 -264 l 1
 265 -264 196 -214 145 -214 c 0
 105 -214 55 -264 55 -264 c 1
 26 -235 l 1
 125 -136 l 1
 125 -136 175 -86 215 -86 c 0
 241 -86 272 -99 296 -112 c 1
 296 27 l 1
EndSplineSet
Substitution2: "Subscript forms-1" nine.inferior
Substitution2: "Superscript forms-1" nine.superior
EndChar
StartChar: equal
Encoding: 61 61 29
Width: 720
Flags: W
HStem: 136 128<155 565> 336 128<155 565>
LayerCount: 2
Back
SplineSet
120 200 m 25
 600 200 l 1049
120 400 m 25
 600 400 l 1049
EndSplineSet
Fore
SplineSet
56 365 m 1
 155 464 l 1
 635 464 l 1
 664 435 l 1
 565 336 l 1
 85 336 l 1
 56 365 l 1
56 165 m 1
 155 264 l 1
 635 264 l 1
 664 235 l 1
 565 136 l 1
 85 136 l 1
 56 165 l 1
EndSplineSet
EndChar
StartChar: question
Encoding: 63 63 31
Width: 480
Flags: W
HStem: 644 20G<225 305>
LayerCount: 2
Back
SplineSet
120 450 m 25
 120 510 l 25
 210 600 l 25
 360 550 l 25
 360 440 l 25
 240 320 l 25
 240 210 l 1049
200 80 m 25
 280 0 l 1049
EndSplineSet
Fore
SplineSet
136 45 m 1
 235 144 l 1
 344 35 l 1
 245 -64 l 1
 136 45 l 1
85 386 m 1
 56 415 l 1
 56 475 l 1
 245 664 l 1
 395 614 l 1
 424 585 l 1
 424 475 l 1
 304 355 l 1
 304 245 l 1
 205 146 l 1
 176 175 l 1
 176 285 l 1
 296 405 l 1
 296 496 l 1
 184 533 l 1
 184 485 l 1
 85 386 l 1
EndSplineSet
EndChar
StartChar: F
Encoding: 70 70 38
Width: 840
Flags: W
HStem: -64 21G<5 40 281 315> -14 128<130.592 219.251> 236 128<544 652> 286 128<477.318 547.884> 461 128<559.969 649.5> 486 21G<5 43> 536 128<100 188.11>
VStem: 220 40<114 512> 326 128<95 285.999 363 504>
AnchorPoint: "blwmark" 420 0 basechar 0
AnchorPoint: "abvmark" 480 700 basechar 0
LayerCount: 2
Back
SplineSet
60 0 m 17
 60 0 97 50 180 50 c 3
 298 50 330 0 330 0 c 9
 390 60 l 1
 390 540 l 1
 450 600 l 1
 450 600 525 525 600 525 c 27
 667 525 720 600 721 600 c 1025
60 550 m 1
 60 550 101 600 149 600 c 3
 192 600 214 575 240 575 c 3
 274 575 300 600 301 600 c 1025
240 550 m 1
 240 75 l 1025
420 300 m 1
 420 300 471 350 505 350 c 3
 547 350 558 300 600 300 c 3
 649 300 690 350 691 350 c 1049
EndSplineSet
Fore
SplineSet
25 486 m 1xd780
 -4 515 l 1
 -4 515 0 519 5 524 c 2
 104 623 l 2
 118 637 149 664 184 664 c 0
 227 664 249 639 275 639 c 0
 309 639 335 664 336 664 c 2
 365 635 l 1
 266 536 l 2
 266 536 263 534 260 532 c 2
 260 111 l 1
 289 107 311 100 326 93 c 1
 326 505 l 1
 485 664 l 1xd780
 485 664 560 589 635 589 c 0xc980
 664 589 691 604 711 619 c 2
 756 664 l 2xc380
 785 635 l 1
 782 632 775 624 763 611 c 2
 763 610 l 2
 664 511 l 2
 642 489 606 461 565 461 c 0
 524 461 483 484 454 504 c 1
 454 363 l 1
 455 364 l 1xe980
 455 364 506 414 540 414 c 0xd180
 582 414 593 364 635 364 c 0xe180
 669 364 699 388 714 402 c 2
 725 413 l 2
 725 414 l 0
 726 414 l 2xd180
 755 385 l 1
 752 382 l 2
 751 381 750 380 749 379 c 2
 748 378 l 2
 649 279 l 2
 635 265 603 236 565 236 c 0xe180
 523 236 512 286 470 286 c 0
 465 286 460 285 454 283 c 1
 454 95 l 1
 295 -64 l 1
 281 -50 l 2
 262 -35 222 -14 145 -14 c 0
 92 -14 58 -34 40 -49 c 2
 25 -64 l 1
 -4 -35 l 1
 -4 -35 -1 -32 3 -28 c 2
 102 71 l 2
 116 85 152 114 215 114 c 0
 217 114 219 114 220 114 c 2
 220 512 l 1
 215 511 210 511 205 511 c 0
 179 511 157 536 114 536 c 0
 86 536 60 518 43 504 c 2
 25 486 l 1xd780
EndSplineSet
EndChar
StartChar: H
Encoding: 72 72 40
Width: 840
Flags: W
HStem: -64 21G<5 40 281 315 665 705> -14 128<130.592 219.251> 486 21G<5 43> 536 128<100 188.11>
VStem: 220 40<114 512> 326 128<95 200 258 505> 596 128<70.7805 280>
AnchorPoint: "blwmark" 480 0 basechar 0
AnchorPoint: "abvmark" 480 700 basechar 0
LayerCount: 2
Back
SplineSet
60 550 m 1
 60 550 101 600 149 600 c 3
 192 600 214 575 240 575 c 3
 274 575 300 600 301 600 c 1025
240 550 m 1
 240 75 l 1025
450 225 m 1
 600 375 l 1
 660 315 l 1
 660 60 l 1
 720 0 l 9
 780 60 l 1049
450 600 m 1
 390 540 l 1
 390 60 l 1
 330 0 l 1
 330 0 298 50 180 50 c 3
 97 50 60 0 60 0 c 1033
EndSplineSet
Fore
SplineSet
485 664 m 1
 514 635 l 1
 454 575 l 1
 454 258 l 1
 635 439 l 1
 724 350 l 1
 724 95 l 2
 724 79 746 73 755 64 c 1
 815 124 l 1
 844 95 l 1
 685 -64 l 1
 596 25 l 1
 596 280 l 1
 565 311 l 1
 454 200 l 1
 454 95 l 1
 295 -64 l 1
 281 -50 l 2
 262 -35 222 -14 145 -14 c 0
 92 -14 58 -34 40 -49 c 2
 25 -64 l 1
 -4 -35 l 2
 -4 -35 -2 -32 2 -28 c 2
 3 -28 l 2
 102 71 l 2
 116 85 152 114 215 114 c 0
 217 114 219 114 220 114 c 2
 220 512 l 1
 215 511 210 511 205 511 c 0
 179 511 157 536 114 536 c 0
 86 536 60 518 43 504 c 2
 25 486 l 1
 -4 515 l 1
 -4 515 0 519 5 524 c 2
 104 623 l 2
 118 637 149 664 184 664 c 0
 227 664 249 639 275 639 c 0
 309 639 335 664 336 664 c 2
 365 635 l 1
 266 536 l 2
 266 536 263 534 260 532 c 2
 260 111 l 1
 288 107 310 100 326 93 c 1
 326 505 l 1
 485 664 l 1
EndSplineSet
EndChar
StartChar: P
Encoding: 80 80 48
Width: 840
Flags: W
HStem: -64 21G<5 40 281 315> -14 128<130.592 219.251> 486 21G<5 43> 536 128<100 188.11>
VStem: 220 40<114 191 239 512> 326 128<95 221 364 505>
AnchorPoint: "blwmark" 480 0 basechar 0
AnchorPoint: "abvmark" 480 700 basechar 0
LayerCount: 2
Back
SplineSet
300 250 m 17
 300 250 369 300 420 300 c 27
 511 300 600 250 600 250 c 1
 720 370 l 1
 720 475 l 1
 450 600 l 1
 390 540 l 1
 390 60 l 1
 330 0 l 1
 330 0 298 50 180 50 c 3
 97 50 60 0 60 0 c 1033
60 550 m 1
 60 550 101 600 149 600 c 3
 192 600 214 575 240 575 c 3
 274 575 300 600 301 600 c 1025
240 550 m 1
 240 75 l 1025
EndSplineSet
Fore
SplineSet
25 486 m 1
 -4 515 l 1
 -4 515 0 519 5 524 c 2
 104 623 l 2
 118 637 149 664 184 664 c 0
 227 664 249 639 275 639 c 0
 309 639 335 664 336 664 c 2
 365 635 l 1
 266 536 l 2
 266 536 263 534 260 532 c 2
 260 239 l 1
 326 305 l 1
 326 505 l 1
 485 664 l 1
 755 539 l 1
 784 510 l 1
 784 405 l 1
 565 186 l 1
 565 186 516 214 454 228 c 1
 454 95 l 1
 295 -64 l 1
 281 -50 l 2
 262 -35 222 -14 145 -14 c 0
 92 -14 58 -34 40 -49 c 2
 25 -64 l 1
 -4 -35 l 2
 -4 -35 -2 -32 2 -28 c 2
 3 -28 l 2
 102 71 l 2
 116 85 152 114 215 114 c 0
 217 114 219 114 220 114 c 2
 220 512 l 1
 215 511 210 511 205 511 c 0
 179 511 157 536 114 536 c 0
 86 536 60 518 43 504 c 2
 25 486 l 1
454 364 m 2
 455 364 455 364 455 364 c 0
 460 364 466 364 471 364 c 0
 556 359 635 314 635 314 c 2
 635 314 654 333 656 335 c 2
 656 424 l 1
 454 518 l 1
 454 364 l 2
260 191 m 1
 260 111 l 1
 288 107 310 100 326 93 c 1
 326 221 l 1
 318 217 310 214 303 210 c 0
 281 198 265 186 265 186 c 1
 260 191 l 1
EndSplineSet
EndChar
StartChar: underscore
Encoding: 95 95 63
Width: 840
Flags: W
HStem: -214 128<155 685>
LayerCount: 2
Back
SplineSet
120 -150 m 25
 720 -150 l 1049
EndSplineSet
Fore
SplineSet
56 -185 m 1
 155 -86 l 1
 755 -86 l 1
 784 -115 l 1
 685 -214 l 1
 85 -214 l 1
 56 -185 l 1
EndSplineSet
EndChar
StartChar: h
Encoding: 104 104 72
Width: 480
Flags: W
HStem: 444 20G<285 325> 444 20G<285 325>
VStem: 56 128<85 285 343 540> 296 128<85 309.438>
AnchorPoint: "blwmark" 240 0 basechar 0
AnchorPoint: "abvmark" 240 700 basechar 0
LayerCount: 2
Back
SplineSet
320 80 m 25
 400 0 l 1049
80 80 m 25
 160 0 l 1049
80 625 m 25
 160 545 l 1049
120 585 m 9
 120 40 l 1049
360 40 m 25
 360 310 l 25
 270 400 l 1
 120 250 l 1049
EndSplineSet
Fore
SplineSet
16 590 m 1xb0
 115 689 l 1
 155 649 l 1
 184 620 l 1
 224 580 l 1
 184 540 l 1
 184 343 l 1
 305 464 l 1
 424 345 l 1
 424 75 l 1
 464 35 l 1
 365 -64 l 1
 325 -24 l 1
 296 5 l 1
 256 45 l 1
 296 85 l 1
 296 275 l 2
 296 308 253 318 235 336 c 1
 184 285 l 1
 184 75 l 1
 224 35 l 1
 125 -64 l 1
 85 -24 l 1
 56 5 l 1
 16 45 l 1
 56 85 l 1
 56 215 l 1
 56 550 l 1
 16 590 l 1xb0
EndSplineSet
Substitution2: "Stylistic alternates-1" h.alt
EndChar
StartChar: k
Encoding: 107 107 75
Width: 480
Flags: W
HStem: 479 20G<335 375> 679 20G<95 135>
VStem: 56 128<75 198 282 550> 296 128<75 154>
AnchorPoint: "blwmark" 240 0 basechar 0
AnchorPoint: "abvmark" 240 700 basechar 0
LayerCount: 2
Back
SplineSet
320 435 m 25
 400 355 l 1049
80 635 m 25
 160 555 l 1049
80 635 m 25
 160 555 l 1049
120 200 m 1
 360 350 l 9
 360 395 l 1049
240 275 m 1
 360 200 l 1
 360 30 l 1025
320 70 m 25
 400 -10 l 1049
80 70 m 25
 160 -10 l 1049
80 635 m 25
 160 555 l 1049
120 595 m 9
 120 30 l 1049
EndSplineSet
Fore
SplineSet
256 400 m 1
 355 499 l 1
 395 459 l 1
 424 430 l 1
 464 390 l 1
 365 291 l 1
 347 309 l 1
 338 299 l 1
 395 264 l 1
 424 235 l 1
 424 65 l 1
 464 25 l 1
 365 -74 l 1
 325 -34 l 1
 296 -5 l 1
 256 35 l 1
 296 75 l 1
 296 154 l 1
 205 211 l 1
 184 198 l 1
 184 65 l 1
 224 25 l 1
 125 -74 l 1
 85 -34 l 1
 56 -5 l 1
 16 35 l 1
 56 75 l 1
 56 165 l 1
 56 560 l 1
 16 600 l 1
 115 699 l 1
 155 659 l 1
 184 630 l 1
 224 590 l 1
 184 550 l 1
 184 282 l 1
 275 339 l 1
 296 352 l 1
 296 360 l 1
 256 400 l 1
EndSplineSet
EndChar
StartChar: t
Encoding: 116 116 84
Width: 389
Flags: W
HStem: 594 20G<165 205> 594 20G<165 205>
VStem: 86 128<70.7805 336 464 515>
AnchorPoint: "blwmark" 210 0 basechar 0
AnchorPoint: "abvmark" 180 650 basechar 0
LayerCount: 2
Back
SplineSet
60 400 m 25
 300 400 l 1049
150 550 m 1
 150 60 l 1
 210 0 l 1
 330 120 l 1025
EndSplineSet
Fore
SplineSet
185 614 m 1xa0
 214 585 l 1
 214 464 l 1
 335 464 l 1
 364 435 l 1
 265 336 l 1
 214 336 l 1
 214 95 l 2
 214 79 236 73 245 64 c 1
 365 184 l 1
 394 155 l 1
 175 -64 l 1
 86 25 l 1
 86 336 l 1
 25 336 l 1
 -4 365 l 1
 86 455 l 1
 86 515 l 1
 185 614 l 1xa0
EndSplineSet
EndChar
StartChar: w
Encoding: 119 119 87
Width: 720
Flags: W
HStem: 444 20G<95 135 335 375> 444 20G<95 135 335 375 640.5 661> 594 20G<640.5 661>
VStem: 56 128<111.793 315> 296 128<111.793 315> 476 128<412.5 509.5> 536 128<155 364.254>
AnchorPoint: "blwmark" 360 0 basechar 0
LayerCount: 2
Back
SplineSet
400 320 m 25
 320 400 l 1049
360 360 m 25
 360 120 l 1
 480 0 l 25
 600 120 l 1
 600 370 l 17
 580 408 540 423 540 472 c 8
 540 516 605 550 606 550 c 1033
160 320 m 25
 80 400 l 1049
120 360 m 25
 120 120 l 1
 240 0 l 25
 360 120 l 1025
EndSplineSet
Fore
SplineSet
184 395 m 1xba
 224 355 l 1
 184 315 l 1
 184 155 l 2
 184 106 248 91 275 64 c 1
 296 85 l 1
 296 325 l 1
 256 365 l 1
 355 464 l 1
 395 424 l 1
 424 395 l 1
 464 355 l 1
 424 315 l 1
 424 155 l 2
 424 106 488 91 515 64 c 1
 536 85 l 1
 536 335 l 1xba
 516 373 476 388 476 437 c 0
 476 455 487 471 500 484 c 2
 599 583 l 2
 600 584 l 2
 619 603 640 614 641 614 c 2
 670 585 l 1
 606 521 l 2
 605 517 604 512 604 507 c 0xbc
 604 458 644 443 664 405 c 1
 664 155 l 1
 445 -64 l 1
 325 56 l 1
 205 -64 l 1
 56 85 l 1
 56 325 l 1
 16 365 l 1
 115 464 l 1
 155 424 l 1
 184 395 l 1xba
EndSplineSet
Substitution2: "Dotless forms-1" w.alt
EndChar
StartChar: braceleft
Encoding: 123 123 91
Width: 360
Flags: W
HStem: -214 21G<217 285>
VStem: 116 128<-48 148 405 545>
LayerCount: 2
Back
SplineSet
300 700 m 25
 180 580 l 1
 180 370 l 25
 60 250 l 25
 180 200 l 25
 180 -100 l 1
 300 -150 l 1049
EndSplineSet
Fore
SplineSet
335 764 m 1
 364 735 l 1
 244 615 l 1
 244 405 l 1
 136 297 l 1
 215 264 l 1
 244 235 l 1
 244 -48 l 1
 335 -86 l 1
 364 -115 l 1
 265 -214 l 1
 145 -164 l 1
 116 -135 l 1
 116 148 l 1
 25 186 l 1
 -4 215 l 1
 116 335 l 1
 116 545 l 1
 335 764 l 1
EndSplineSet
EndChar
StartChar: currency
Encoding: 164 164 207
Width: 600
Flags: W
HStem: 544 20G<285 339.921> 644 20G<75 115 555 595>
LayerCount: 2
Back
SplineSet
540 0 m 25
 420 125 l 1049
60 0 m 25
 180 125 l 1049
540 600 m 25
 420 475 l 1049
60 600 m 25
 180 475 l 1049
270 500 m 25
 120 350 l 25
 120 220 l 25
 330 100 l 25
 480 250 l 25
 480 380 l 25
 270 500 l 25
EndSplineSet
Fore
SplineSet
235 436 m 1
 184 385 l 1
 184 267 l 1
 365 164 l 2
 365 164 412 211 416 215 c 2
 416 333 l 1
 235 436 l 1
56 315 m 1
 305 564 l 1
 415 501 l 1
 476 565 l 1
 575 664 l 1
 604 635 l 1
 484 510 l 1
 453 479 l 1
 515 444 l 1
 544 415 l 1
 544 285 l 1
 295 36 l 1
 185 99 l 1
 124 35 l 1
 25 -64 l 1
 -4 -35 l 1
 116 90 l 1
 147 121 l 1
 85 156 l 1
 56 185 l 1
 56 315 l 1
95 664 m 1
 124 635 l 1
 244 510 l 1
 145 411 l 1
 116 440 l 1
 -4 565 l 1
 95 664 l 1
505 -64 m 1
 476 -35 l 1
 356 90 l 1
 455 189 l 1
 484 160 l 1
 604 35 l 1
 505 -64 l 1
EndSplineSet
EndChar
StartChar: yen
Encoding: 165 165 204
Width: 780
Flags: W
HStem: -214 128<142.321 441.541> -39 128<249.25 353 357 501.748> 486 21G<5 43> 536 128<100 205.5>
VStem: 176 128<310 526.228> 506 128<74 237 295 535>
LayerCount: 2
Back
SplineSet
60 550 m 1
 60 550 101 600 149 600 c 3
 192 600 196 575 240 575 c 1
 240 275 l 1025
120 200 m 17
 120 200 166 250 210 250 c 3
 372 250 390 150 390 150 c 1
 570 330 l 1025
60 -200 m 17
 60 -200 79 -150 300 -150 c 3
 529 -150 450 -200 450 -200 c 9
 570 -80 l 1
 570 570 l 1025
540 600 m 25
 600 540 l 1049
180 -25 m 17
 180 -25 228 25 270 25 c 27
 410 25 490 0 630 0 c 27
 672 0 720 50 720 50 c 1033
EndSplineSet
Fore
SplineSet
145 -89 m 1
 116 -60 l 1
 116 -60 116 -60 117 -59 c 2
 216 40 l 2
 224 48 267 89 305 89 c 0
 322 89 338 89 353 88 c 1
 326 115 l 2
 326 115 323 131 309 150 c 1
 283 169 241 186 175 186 c 0
 141 186 107 157 92 143 c 2
 85 136 l 1
 56 165 l 1
 56 165 57 166 59 168 c 2
 158 267 l 2
 162 271 168 277 176 283 c 1
 176 516 l 1
 156 523 145 536 114 536 c 0
 86 536 60 518 43 504 c 2
 25 486 l 1
 -4 515 l 1
 -4 515 0 519 5 524 c 2
 104 623 l 2
 118 637 149 664 184 664 c 0
 227 664 231 639 275 639 c 1
 304 610 l 1
 304 310 l 1
 303 309 l 1
 348 301 377 283 395 265 c 2
 424 236 l 2
 425 235 l 0
 429 231 432 227 435 224 c 1
 506 295 l 1
 506 535 l 1
 476 565 l 1
 575 664 l 1
 605 634 l 1
 634 605 l 1
 664 575 l 1
 634 545 l 1
 634 365 l 1
 634 64 l 1
 644 64 654 64 665 64 c 0
 702 64 743 102 753 112 c 2
 755 114 l 1
 784 85 l 1
 784 85 784 85 783 84 c 2
 684 -15 l 2
 678 -21 650 -48 620 -59 c 1
 525 -154 l 2
 524 -156 522 -158 520 -160 c 2
 421 -259 l 2
 418 -262 415 -264 415 -264 c 1
 386 -235 l 1
 397 -224 l 1
 373 -218 332 -214 265 -214 c 0
 117 -214 60 -236 38 -251 c 1
 25 -264 l 1
 -4 -235 l 1
 -4 -235 -3 -233 1 -229 c 2
 100 -130 l 2
 113 -117 162 -86 335 -86 c 0
 443 -86 482 -97 494 -109 c 2
 503 -118 l 1
 506 -115 l 1
 506 -61 l 1
 415 -54 343 -39 235 -39 c 0
 199 -39 158 -77 147 -87 c 2
 145 -89 l 1
506 74 m 1
 506 237 l 1
 357 88 l 1
 412 86 458 79 506 74 c 1
EndSplineSet
EndChar
StartChar: brokenbar
Encoding: 166 166 205
Width: 300
Flags: W
HStem: -214 21G<95 135>
VStem: 86 128<-115 165 385 665>
LayerCount: 2
Back
SplineSet
150 -150 m 17
 150 200 l 1025
150 350 m 1
 150 700 l 1033
EndSplineSet
Fore
SplineSet
115 286 m 1
 86 315 l 1
 86 665 l 1
 185 764 l 1
 214 735 l 1
 214 385 l 1
 115 286 l 1
115 -214 m 1
 86 -185 l 1
 86 165 l 1
 185 264 l 1
 214 235 l 1
 214 -115 l 1
 115 -214 l 1
EndSplineSet
EndChar
StartChar: periodcentered
Encoding: 183 183 212
Width: 360
Flags: W
HStem: 226 208
VStem: 76 208
LayerCount: 2
Back
SplineSet
140 370 m 25
 220 290 l 1049
EndSplineSet
Fore
SplineSet
76 335 m 1
 175 434 l 1
 284 325 l 1
 185 226 l 1
 76 335 l 1
EndSplineSet
EndChar
StartChar: cedilla
Encoding: 184 184 102
Width: 480
Flags: W
HStem: -239 128<98.1986 226.093>
LayerCount: 2
Back
SplineSet
240 0 m 25
 210 -25 l 1
 360 -50 l 1
 240 -200 l 1
 240 -200 209 -175 150 -175 c 3
 78 -175 60 -200 60 -200 c 1025
EndSplineSet
Fore
SplineSet
304 35 m 1
 299 30 l 1
 395 14 l 1
 424 -15 l 1
 304 -165 l 1
 205 -264 l 1
 205 -264 174 -239 115 -239 c 0
 60 -239 37 -253 29 -260 c 2
 25 -264 l 1
 -4 -235 l 1
 -4 -235 -3 -234 -2 -233 c 2
 97 -134 l 2
 103 -128 125 -111 185 -111 c 0
 222 -111 247 -121 262 -128 c 1
 279 -106 l 1
 175 -89 l 1
 146 -60 l 1
 245 39 l 1
 275 64 l 1
 304 35 l 1
EndSplineSet
EndChar
StartChar: guillemotright
Encoding: 187 187 216
Width: 660
Flags: W
LayerCount: 2
Back
SplineSet
390 325 m 17
 390 325 416.080078124 295.744140624 450 275 c 0
 564 207 600 200 600 200 c 1
 600 200 523 174 420 100 c 0
 394.849609376 81.7324218749 360 50 360 50 c 1033
90 325 m 17
 90 325 116.080078125 295.744140624 150 275 c 0
 264 207 300 200 300 200 c 1
 300 200 223 174 120 100 c 0
 94.8496093749 81.7324218749 60 50 60 50 c 1033
EndSplineSet
Fore
SplineSet
125 389 m 1
 142 372 l 2
 153 362 168 350 185 339 c 0
 253 298 294 280 315 271 c 0
 329 265 335 264 335 264 c 1
 364 235 l 1
 265 136 l 1
 265 136 261 135 254 132 c 0
 230 122 165 94 85 36 c 0
 60 18 25 -14 25 -14 c 1
 -4 15 l 1
 95 114 l 1
 95 114 130 146 155 164 c 0
 161 168 168 173 174 177 c 1
 157 186 138 198 115 211 c 0
 92 225 73 243 63 253 c 2
 34 282 l 2
 29 287 26 290 26 290 c 1
 125 389 l 1
425 389 m 1
 442 372 l 2
 453 362 468 350 485 339 c 0
 553 298 594 280 615 271 c 0
 629 265 635 264 635 264 c 1
 664 235 l 1
 565 136 l 1
 565 136 561 135 554 132 c 0
 530 122 465 94 385 36 c 0
 360 18 325 -14 325 -14 c 1
 296 15 l 1
 395 114 l 1
 395 114 430 146 455 164 c 0
 461 168 468 173 474 177 c 1
 457 186 438 198 415 211 c 0
 392 225 373 243 363 253 c 2
 334 282 l 2
 329 287 326 290 326 290 c 1
 425 389 l 1
EndSplineSet
EndChar
StartChar: eng
Encoding: 331 331 600
Width: 480
Flags: W
HStem: -214 128<99 196.5>
VStem: 56 128<85 279> 296 128<-115 269>
AnchorPoint: "abvmark" 240 500 basechar 0
LayerCount: 2
Back
SplineSet
120 244 m 25
 270 394 l 1
 360 304 l 1
 360 -150 l 1
 360 -150 304 -200 270 -200 c 0
 232 -200 175 -150 150 -150 c 16
 104 -150 60 -200 60 -200 c 1033
80 80 m 25
 160 0 l 1049
160 314 m 25
 80 394 l 1049
120 354 m 9
 120 40 l 1025
EndSplineSet
Fore
SplineSet
184 389 m 1
 210 363 l 1
 305 458 l 1
 424 339 l 1
 424 -115 l 1
 325 -214 l 1
 325 -214 269 -264 235 -264 c 0
 197 -264 140 -214 115 -214 c 0
 83 -214 52 -239 36 -253 c 2
 25 -264 l 1
 -4 -235 l 2
 -4 -235 -2 -233 1 -230 c 2
 1 -229 l 2
 100 -130 l 2
 113 -117 149 -86 185 -86 c 0
 208 -86 258 -128 296 -135 c 1
 296 269 l 1
 235 330 l 1
 184 279 l 1
 184 75 l 1
 224 35 l 1
 125 -64 l 1
 85 -24 l 1
 56 5 l 1
 16 45 l 1
 56 85 l 1
 56 209 l 1
 56 319 l 1
 16 359 l 1
 115 458 l 1
 155 418 l 1
 184 389 l 1
EndSplineSet
EndChar
StartChar: caron
Encoding: 711 711 245
Width: 480
Flags: W
HStem: 461 303
LayerCount: 2
Back
SplineSet
120 700 m 25
 120 700 240 625 240 525 c 1
 240 675 360 700 360 700 c 1025
EndSplineSet
Fore
SplineSet
304 561 m 0
 304 560 l 2
 205 461 l 1
 176 490 l 1
 176 510 171 529 164 546 c 0
 154 568 140 588 125 605 c 0
 103 624 85 636 85 636 c 1
 56 665 l 1
 155 764 l 1
 155 764 182 747 210 719 c 2
 239 690 l 2
 240 689 l 0
 248 681 256 672 264 662 c 1
 325 723 l 2
 358 756 395 764 395 764 c 1
 424 735 l 1
 325 636 l 1
 325 636 322 635 316 633 c 1
 309 614 304 590 304 561 c 0
EndSplineSet
EndChar
StartChar: breve
Encoding: 728 728 265
Width: 480
Flags: W
HStem: 461 128<203.258 322> 644 20G<135 175 405 445>
LayerCount: 2
Back
SplineSet
120 600 m 17
 120 600 137.55499552 525 270 525 c 3
 324 525 390 600 390 600 c 1033
EndSplineSet
Fore
SplineSet
155 664 m 1
 184 635 l 1
 184 635 185 627 192 617 c 1
 215 602 250 589 305 589 c 0
 339 589 377 618 401 640 c 2
 425 664 l 1
 454 635 l 2
 454 635 450 631 443 624 c 2
 443 623 l 2
 344 524 l 2
 323 503 275 461 235 461 c 0
 164 461 126 482 106 502 c 2
 77 531 l 2
 60 548 56 565 56 565 c 1
 155 664 l 1
EndSplineSet
EndChar
StartChar: ringbelow
Encoding: 755 755 886
Width: 480
Flags: W
HStem: -339 128<214.457 293.544> -139 128<186.456 265.543>
LayerCount: 2
Back
SplineSet
120 -150 m 0
 120 -90 138 -75 210 -75 c 0
 300 -75 360 -125 360 -200 c 0
 360 -260 342 -275 270 -275 c 0
 180 -275 120 -225 120 -150 c 0
EndSplineSet
Fore
SplineSet
56 -185 m 0
 56 -157 60 -138 71 -127 c 2
 170 -28 l 2
 183 -15 207 -11 245 -11 c 0
 295 -11 336 -27 362 -53 c 2
 391 -82 l 2
 412 -103 424 -132 424 -165 c 0
 424 -193 420 -212 409 -223 c 2
 310 -322 l 2
 297 -335 273 -339 235 -339 c 0
 185 -339 144 -323 118 -297 c 2
 89 -268 l 2
 68 -247 56 -218 56 -185 c 0
186 -139 m 1
 189 -155 195 -170 204 -183 c 1
 227 -199 258 -209 294 -211 c 1
 291 -195 285 -180 276 -167 c 1
 253 -151 222 -141 186 -139 c 1
EndSplineSet
EndChar
StartChar: Germandbls
Encoding: 7838 7838 136
Width: 840
Flags: W
HStem: -174 128<337.616 488.15> -64 21G<5 40 281 315> -14 128<130.592 219.251> 486 21G<5 43> 536 128<100 188.11>
VStem: 220 40<114 512> 326 128<95 505> 656 128<-75 173>
AnchorPoint: "abvmark" 480 700 basechar 0
LayerCount: 2
Back
SplineSet
60 0 m 21
 60 0 97 50 180 50 c 7
 298 50 330 0 330 0 c 5
 390 60 l 5
 390 540 l 5
 450 600 l 5
 720 475 l 5
 720 395 l 5
 600 275 l 13
 720 225 l 29
 720 -110 l 29
 630 -200 l 5
 599 -160 500.505859376 -110 420 -110 c 7
 265.804761949 -110 210 -200 210 -200 c 1029
60 550 m 5
 60 550 101 600 149 600 c 7
 192 600 214 575 240 575 c 7
 274 575 300 600 301 600 c 1029
240 550 m 1
 240 75 l 1025
EndSplineSet
Fore
SplineSet
25 486 m 1x7f
 -4 515 l 1
 -4 515 0 519 5 524 c 2
 104 623 l 2
 118 637 149 664 184 664 c 0
 227 664 249 639 275 639 c 0
 309 639 335 664 336 664 c 2
 365 635 l 1
 266 536 l 2
 266 536 263 534 260 532 c 2
 260 111 l 1
 289 107 311 100 326 93 c 1
 326 505 l 1
 485 664 l 1
 755 539 l 1
 784 510 l 1
 784 430 l 1
 676 322 l 1
 755 289 l 1
 784 260 l 1
 784 -75 l 1
 595 -264 l 1
 575 -244 l 1
 532 -209 453 -174 385 -174 c 0
 302 -174 248 -200 215 -224 c 1
 175 -264 l 1
 146 -235 l 1
 146 -235 151 -227 163 -215 c 2
 262 -116 l 2
 288 -89 348 -46 455 -46 c 0xbf
 529 -46 618 -88 656 -126 c 1
 656 173 l 1
 565 211 l 1
 536 240 l 1
 656 360 l 1
 656 424 l 1
 454 518 l 1
 454 95 l 1
 295 -64 l 1
 281 -50 l 2
 262 -35 222 -14 145 -14 c 0
 92 -14 58 -34 40 -49 c 2
 25 -64 l 1
 -4 -35 l 1
 -4 -35 -1 -32 3 -28 c 2
 102 71 l 2
 116 85 152 114 215 114 c 0
 217 114 219 114 220 114 c 2
 220 512 l 1
 215 511 210 511 205 511 c 0
 179 511 157 536 114 536 c 0
 86 536 60 518 43 504 c 2
 25 486 l 1x7f
EndSplineSet
EndChar
StartChar: quoteright
Encoding: 8217 8217 255
Width: 360
Flags: W
VStem: 41 248
LayerCount: 2
Back
SplineSet
145 630 m 25
 225 550 l 1
 225 470 l 25
 105 350 l 1049
EndSplineSet
Fore
SplineSet
81 595 m 1
 180 694 l 1
 289 585 l 1
 289 505 l 1
 70 286 l 1
 41 315 l 1
 161 435 l 1
 161 515 l 1
 81 595 l 1
EndSplineSet
EndChar
StartChar: quotedblleft
Encoding: 8220 8220 251
Width: 600
Flags: W
LayerCount: 2
Back
SplineSet
215 395 m 25
 135 475 l 1
 135 555 l 25
 255 675 l 1049
455 395 m 25
 375 475 l 1
 375 555 l 25
 495 675 l 1049
EndSplineSet
Fore
SplineSet
519 430 m 1
 420 331 l 1
 311 440 l 1
 311 520 l 1
 530 739 l 1
 559 710 l 1
 439 590 l 1
 439 510 l 1
 519 430 l 1
279 430 m 1
 180 331 l 1
 71 440 l 1
 71 520 l 1
 290 739 l 1
 319 710 l 1
 199 590 l 1
 199 510 l 1
 279 430 l 1
EndSplineSet
EndChar
StartChar: guilsinglleft
Encoding: 8249 8249 242
Width: 360
Flags: W
LayerCount: 2
Back
SplineSet
270 325 m 17
 270 325 243.919921876 295.744140624 210 275 c 0
 96 207 60 200 60 200 c 1
 60 200 137 174 240 100 c 0
 265.149767011 81.7315958295 300 50 300 50 c 1033
EndSplineSet
Fore
SplineSet
305 389 m 1
 334 360 l 1
 334 360 331 357 326 352 c 2
 228 253 l 2
 227 252 l 0
 218 243 204 231 188 220 c 1
 214 205 243 187 275 164 c 0
 300 146 335 114 335 114 c 1
 364 85 l 1
 265 -14 l 1
 265 -14 230 18 205 36 c 0
 102 110 25 136 25 136 c 1
 -4 165 l 1
 95 264 l 1
 95 264 131 271 245 339 c 0
 262 350 276 361 288 372 c 2
 305 389 l 1
EndSplineSet
EndChar
StartChar: refmark
Encoding: 8251 8251 953
Width: 720
Flags: W
HStem: 1 21G<315 355> 564 15G<135 179 365 405 611 655> 579 20G<365 405>
LayerCount: 2
Back
SplineSet
600 500 m 25
 120 100 l 1049
120 500 m 25
 600 100 l 1049
560 360 m 25
 640 280 l 1049
290 145 m 25
 370 65 l 1049
350 535 m 25
 430 455 l 1049
80 320 m 25
 160 240 l 1049
EndSplineSet
Fore
SplineSet
16 285 m 1x80
 115 384 l 1
 224 275 l 1
 125 176 l 1
 16 285 l 1x80
286 500 m 1
 385 599 l 1xa0
 494 490 l 1
 395 391 l 1
 286 500 l 1
226 110 m 1
 325 209 l 1
 434 100 l 1
 335 1 l 1
 226 110 l 1
496 325 m 1
 595 424 l 1
 704 315 l 1
 605 216 l 1
 496 325 l 1
56 465 m 1
 155 564 l 1
 395 364 l 1
 635 564 l 1xc0
 664 535 l 1
 565 436 l 1
 437 329 l 1
 635 164 l 1
 664 135 l 1
 565 36 l 1
 325 236 l 1
 85 36 l 1
 56 65 l 1
 155 164 l 1
 283 271 l 1
 85 436 l 1
 56 465 l 1
EndSplineSet
EndChar
StartChar: fraction
Encoding: 8260 8260 217
Width: 840
Flags: W
LayerCount: 2
Back
SplineSet
120 0 m 25
 720 700 l 1049
EndSplineSet
Fore
SplineSet
85 -64 m 1
 56 -35 l 1
 656 665 l 1
 755 764 l 1
 784 735 l 1
 184 35 l 1
 85 -64 l 1
EndSplineSet
EndChar
StartChar: bracketquillleft
Encoding: 8261 8261 916
Width: 360
Flags: W
HStem: -214 128<184 265> 236 128<184 265> 636 128<184 265>
VStem: 56 128<-86 236 364 636>
LayerCount: 2
Back
SplineSet
300 300 m 25
 120 300 l 1049
300 700 m 25
 120 700 l 25
 120 -150 l 25
 300 -150 l 1033
EndSplineSet
Fore
SplineSet
364 735 m 1
 265 636 l 1
 184 636 l 1
 184 364 l 1
 335 364 l 1
 364 335 l 1
 265 236 l 1
 184 236 l 1
 184 -86 l 1
 335 -86 l 1
 364 -115 l 1
 265 -214 l 1
 85 -214 l 1
 56 -185 l 1
 56 265 l 1
 56 665 l 1
 155 764 l 1
 335 764 l 1
 364 735 l 1
EndSplineSet
EndChar
StartChar: paragraphrev
Encoding: 8267 8267 951
Width: 840
Flags: W
HStem: -214 128<260 323.176> 36 128<495 582.501> 486 21G<5 45> 511 153<140.41 218.923 485 524.732> 536 128<105.985 188.11> 536 103<492.75 595.624>
VStem: 220 40<-86 512> 326 128<-40 46 182 505> 627 128<227.284 509.148>
LayerCount: 2
Back
SplineSet
60 550 m 5
 60 550 99 600 149 600 c 7
 192 600 214 575 240 575 c 7
 274 575 300 600 301 600 c 1029
240 550 m 5
 240 -125 l 1029
480 -200 m 5
 480 -200 328 -150 210 -150 c 7
 127 -150 90 -200 90 -200 c 1029
451 150 m 21
 451 150 462.861328124 100 541 100 c 7
 643 100 691 177.791015624 691 350 c 7
 691 469 684 600 602 600 c 7
 559 600 537 575 511 575 c 7
 477 575 451 600 450 600 c 5
 390 540 l 5
 390 -75 l 1029
EndSplineSet
Fore
SplineSet
454 46 m 1xeb80
 454 -40 l 1
 390 -103 l 1
 460 -117 515 -136 515 -136 c 1
 544 -165 l 1
 445 -264 l 1
 445 -264 293 -214 175 -214 c 0
 122 -214 88 -234 70 -249 c 2
 55 -264 l 1
 26 -235 l 2
 26 -235 28 -232 32 -228 c 2
 33 -228 l 2
 132 -129 l 2
 144 -117 172 -94 220 -88 c 1
 220 512 l 1
 215 511 210 511 205 511 c 0xf380
 179 511 157 536 114 536 c 0xeb80
 87 536 64 522 47 508 c 2
 25 486 l 1
 -4 515 l 1
 -4 515 0 520 6 526 c 2
 105 625 l 2
 106 626 l 0
 121 641 150 664 184 664 c 0xf380
 227 664 249 639 275 639 c 0xe780
 309 639 335 664 336 664 c 2xeb80
 365 635 l 1
 266 536 l 2xe780
 266 536 263 534 260 532 c 2
 260 -86 l 1
 281 -87 304 -89 326 -92 c 1
 326 505 l 1
 485 664 l 2xf380
 486 664 512 639 546 639 c 0xe780
 572 639 594 664 637 664 c 0
 655 664 669 658 681 646 c 2
 711 617 l 2
 751 577 755 477 755 385 c 0
 755 279 737 208 699 170 c 2
 698 170 l 2
 599 71 l 2
 575 48 545 36 506 36 c 0
 484 36 467 40 454 46 c 1xeb80
454 182 m 1
 486 214 l 1
 515 185 l 1
 515 185 516 182 518 177 c 0
 531 170 550 164 576 164 c 0
 588 164 599 165 609 167 c 1
 621 205 627 254 627 315 c 0
 627 396 624 482 596 529 c 1
 588 533 578 536 567 536 c 0xe780
 524 536 502 511 476 511 c 0
 468 511 460 512 454 514 c 1
 454 182 l 1
EndSplineSet
EndChar
StartChar: logicaland
Encoding: 8743 8743 952
Width: 720
Flags: W
HStem: 444 20G<375 415> 444 20G<375 415>
LayerCount: 2
Back
SplineSet
120 0 m 25
 360 400 l 25
 600 0 l 1049
EndSplineSet
Fore
SplineSet
85 -64 m 1x80
 56 -35 l 1
 296 365 l 1
 395 464 l 1
 424 435 l 1
 664 35 l 1
 565 -64 l 1
 536 -35 l 1
 339 293 l 1
 184 35 l 1
 85 -64 l 1x80
EndSplineSet
EndChar
StartChar: therefore
Encoding: 8756 8756 896
Width: 720
Flags: W
LayerCount: 2
Back
SplineSet
500 80 m 25
 580 0 l 1049
320 350 m 25
 400 270 l 1049
140 80 m 25
 220 0 l 1049
EndSplineSet
Fore
SplineSet
76 45 m 1
 175 144 l 1
 284 35 l 1
 185 -64 l 1
 76 45 l 1
256 315 m 1
 355 414 l 1
 464 305 l 1
 365 206 l 1
 256 315 l 1
436 45 m 1
 535 144 l 1
 644 35 l 1
 545 -64 l 1
 436 45 l 1
EndSplineSet
EndChar
StartChar: FleuronRight
Encoding: 10087 10087 956
Width: 960
Flags: W
HStem: 544 20G<195 239>
LayerCount: 2
Back
SplineSet
60 150 m 25
 90 200 l 25
 390 300 l 1049
210 0 m 25
 180 25 l 25
 210 475 l 25
 180 500 l 1049
900 350 m 1
 900 350 746 25 540 25 c 27
 449 25 360 74 360 150 c 27
 360 212 510 250 510 250 c 1
 510 250 360 288 360 350 c 27
 360 405 421 450 480 450 c 3
 568 450 607 386 660 325 c 8
 695 285 691 225 750 225 c 3
 800 225 870 325 870 325 c 1025
EndSplineSet
Fore
SplineSet
935 414 m 1
 964 385 l 1
 964 385 958 371 946 350 c 0
 921 306 873 227 809 163 c 2
 710 64 l 2
 653 7 582 -39 505 -39 c 0
 447 -39 390 -19 356 15 c 2
 327 44 l 1
 308 63 296 87 296 115 c 0
 296 128 303 141 314 152 c 2
 383 221 l 1
 373 226 365 232 357 238 c 1
 355 236 l 1
 253 202 l 1
 244 65 l 1
 245 64 l 1
 274 35 l 1
 175 -64 l 1
 145 -39 l 1
 116 -10 l 1
 127 160 l 1
 85 146 l 1
 25 86 l 1
 -4 115 l 1
 26 165 l 1
 125 264 l 1
 134 267 l 1
 146 435 l 1
 145 436 l 1
 116 465 l 1
 215 564 l 1
 245 539 l 1
 274 510 l 1
 261 309 l 1
 296 321 l 1
 298 342 308 361 324 377 c 2
 423 476 l 2
 446 499 481 514 515 514 c 0
 567 514 601 492 632 461 c 2
 661 432 l 1
 662 432 l 1
 683 411 702 385 724 360 c 0
 742 339 750 313 761 293 c 1
 768 290 775 289 785 289 c 0
 794 289 804 293 814 298 c 2
 905 389 l 1
 908 386 l 1
 935 414 l 1
EndSplineSet
EndChar
StartChar: ramus
Encoding: 11801 11801 911
Width: 720
Flags: W
HStem: -214 21G<65 105> 550 20G<278 318> 632 20G<701 741>
VStem: 26 128<161.183 315> 199 128<355.515 471>
LayerCount: 2
Back
SplineSet
432 662 m 1
 432 662 432 625 432 600 c 27
 432 551 474 475 474 475 c 1
 474 475 582 516 642 550 c 24
 666 564 686 588 686 588 c 1025
90 350 m 1
 90 350 90 274 90 225 c 27
 90 127 185 -25 185 -25 c 1
 185 -25 391 57 510 125 c 24
 558 153 600 200 600 200 c 1025
263 506 m 1
 263 506 263 449 263 412 c 27
 263 339 330 225 330 225 c 1
 330 225 488 287 577 338 c 24
 613 359 646 394 646 394 c 1025
120 -150 m 25
 600 700 l 1049
EndSplineSet
Fore
SplineSet
85 -214 m 1
 56 -185 l 1
 125 -64 l 1
 121 -60 l 1
 121 -60 26 92 26 190 c 2
 26 315 l 1
 125 414 l 1
 154 385 l 1
 154 260 l 2
 154 207 182 136 208 84 c 1
 267 189 l 1
 266 190 l 1
 266 190 199 304 199 377 c 2
 199 471 l 1
 298 570 l 1
 327 541 l 1
 327 447 l 2
 327 416 340 376 354 342 c 1
 409 441 l 1
 404 450 368 519 368 565 c 2
 368 627 l 1
 467 726 l 1
 496 697 l 1
 496 635 l 2
 496 625 498 613 501 602 c 1
 536 665 l 1
 635 764 l 1
 664 735 l 1
 566 562 l 1
 601 577 646 596 677 614 c 0
 685 619 693 625 699 630 c 2
 721 652 l 1
 750 623 l 2
 750 623 746 620 740 613 c 2
 739 612 l 2
 640 513 l 2
 632 505 620 494 607 486 c 0
 575 468 529 448 493 433 c 1
 426 314 l 1
 480 337 559 371 612 402 c 0
 637 416 660 438 672 449 c 2
 681 458 l 1
 710 429 l 2
 710 429 709 428 706 425 c 2
 607 326 l 2
 597 316 570 291 542 274 c 0
 488 243 407 208 353 185 c 1
 286 66 l 1
 357 96 469 145 545 189 c 0
 569 203 592 222 608 237 c 2
 635 264 l 1
 664 235 l 2
 664 235 660 230 652 222 c 2
 651 222 l 2
 552 123 l 2
 536 107 507 80 475 61 c 0
 398 17 283 -33 213 -63 c 1
 184 -115 l 1
 85 -214 l 1
EndSplineSet
EndChar
StartChar: llslst
Encoding: 11805 11805 905
Width: 360
Flags: W
HStem: -214 21G<5 45>
LayerCount: 2
Back
SplineSet
60 -150 m 25
 300 100 l 1049
EndSplineSet
Fore
SplineSet
25 -214 m 1
 -4 -185 l 1
 236 65 l 1
 335 164 l 1
 364 135 l 1
 124 -115 l 1
 25 -214 l 1
EndSplineSet
EndChar
StartChar: barquillleft
Encoding: 11808 11808 920
Width: 360
Flags: W
HStem: -214 21G<65 105> 236 128<184 265>
VStem: 56 128<-115 236 364 665>
LayerCount: 2
Back
SplineSet
300 300 m 25
 120 300 l 1049
120 700 m 25
 120 -150 l 1049
EndSplineSet
Fore
SplineSet
155 764 m 1
 184 735 l 1
 184 364 l 1
 335 364 l 1
 364 335 l 1
 265 236 l 1
 184 236 l 1
 184 -115 l 1
 85 -214 l 1
 56 -185 l 1
 56 265 l 1
 56 665 l 1
 155 764 l 1
EndSplineSet
EndChar
StartChar: barquillright
Encoding: 11809 11809 921
Width: 360
Flags: W
HStem: -214 21G<185 225> 236 128<95 176>
VStem: 176 128<-115 236 364 665>
LayerCount: 2
Back
SplineSet
60 300 m 25
 240 300 l 1049
240 700 m 25
 240 -150 l 1049
EndSplineSet
Fore
SplineSet
275 764 m 1
 304 735 l 1
 304 335 l 1
 304 -115 l 1
 205 -214 l 1
 176 -185 l 1
 176 236 l 1
 25 236 l 1
 -4 265 l 1
 95 364 l 1
 176 364 l 1
 176 665 l 1
 275 764 l 1
EndSplineSet
EndChar
StartChar: bracketbottomleft
Encoding: 11812 11812 924
Width: 360
Flags: W
HStem: -214 128<184 265>
VStem: 56 128<-86 265>
LayerCount: 2
Back
SplineSet
120 300 m 1
 120 -150 l 9
 300 -150 l 1033
EndSplineSet
Fore
SplineSet
155 364 m 1
 184 335 l 1
 184 -86 l 1
 335 -86 l 1
 364 -115 l 1
 265 -214 l 1
 85 -214 l 1
 56 -185 l 1
 56 265 l 1
 155 364 l 1
EndSplineSet
EndChar
StartChar: bracketbottomright
Encoding: 11813 11813 925
Width: 360
Flags: W
HStem: -214 128<95 176>
VStem: 176 128<-86 265>
LayerCount: 2
Back
SplineSet
240 300 m 1
 240 -150 l 9
 60 -150 l 1033
EndSplineSet
Fore
SplineSet
275 364 m 1
 304 335 l 1
 304 -115 l 1
 205 -214 l 1
 25 -214 l 1
 -4 -185 l 1
 95 -86 l 1
 176 -86 l 1
 176 265 l 1
 275 364 l 1
EndSplineSet
EndChar
StartChar: fivedots
Encoding: 11821 11821 935
Width: 720
Flags: W
HStem: 449 20G<335 375>
LayerCount: 2
Back
SplineSet
320 215 m 25
 400 135 l 1049
550 215 m 25
 630 135 l 1049
320 25 m 25
 400 -55 l 1049
320 405 m 25
 400 325 l 1049
90 215 m 25
 170 135 l 1049
EndSplineSet
Fore
SplineSet
26 180 m 1
 125 279 l 1
 234 170 l 1
 135 71 l 1
 26 180 l 1
256 370 m 1
 355 469 l 1
 464 360 l 1
 369 265 l 1
 464 170 l 1
 369 75 l 1
 464 -20 l 1
 365 -119 l 1
 256 -10 l 1
 351 85 l 1
 256 180 l 1
 351 275 l 1
 256 370 l 1
486 180 m 1
 585 279 l 1
 694 170 l 1
 595 71 l 1
 486 180 l 1
EndSplineSet
EndChar
StartChar: a_a
Encoding: 42803 42803 336
Width: 720
Flags: W
HStem: 444 20G<225 365 465 605> 444 20G<225 365 465 605>
VStem: 296 128<125 161 292 316> 536 128<115 161 291 316>
AnchorPoint: "abvmark" 360 500 basechar 0
AnchorPoint: "blwmark" 360 0 basechar 0
LayerCount: 2
Back
SplineSet
360 310 m 1
 450 400 l 1
 600 375 l 1
 600 30 l 1
 630 0 l 1
 690 60 l 1049
600 150 m 25
 450 0 l 1
 360 90 l 1
 360 160 l 1
 450 250 l 1
 450 250 472.927734376 225 540 225 c 3
 520.99609375 225 600 225 600 225 c 1033
150 220 m 17
 120 310 l 1
 210 400 l 1
 360 375 l 1
 360 150 l 9
 210 0 l 1
 120 90 l 1
 120 160 l 1
 210 250 l 1
 210 250 232.928594192 225 300 225 c 3
 280.995781714 225 360 225 360 225 c 1033
EndSplineSet
Fore
SplineSet
101 170 m 1xb0
 86 185 l 1
 56 275 l 1
 245 464 l 1
 395 439 l 1
 424 410 l 1
 424 403 l 1
 485 464 l 1
 635 439 l 1
 664 410 l 1
 664 260 l 1
 664 185 l 1
 664 65 l 1
 665 64 l 1
 725 124 l 1
 754 95 l 1
 595 -64 l 1
 536 -5 l 1
 536 57 l 1
 415 -64 l 1
 296 55 l 1
 296 57 l 1
 175 -64 l 1
 56 55 l 1
 56 125 l 1
 101 170 l 1xb0
207 276 m 1
 245 314 l 1
 246 313 l 2
 249 310 263 298 296 292 c 1
 296 316 l 1
 188 334 l 1
 207 276 l 1
296 161 m 1
 264 161 l 2
 220 161 196 172 184 179 c 1
 184 125 l 1
 245 64 l 1
 296 115 l 1
 296 125 l 1
 296 161 l 1
424 253 m 1
 485 314 l 1
 486 313 l 2
 489 310 499 296 536 291 c 1
 536 316 l 1
 424 335 l 1
 424 253 l 1
536 161 m 1
 454 163 435 172 424 179 c 1
 424 125 l 1
 485 64 l 1
 536 115 l 1
 536 161 l 1
EndSplineSet
LCarets2: 1 360 
Ligature2: "Historic ligatures-1" a a
EndChar
StartChar: a_v
Encoding: 42809 42809 345
Width: 720
Flags: W
HStem: 449 20G<225 345 640.5 661> 594 20G<640.5 661>
VStem: 476 128<420.5 509.5> 536 128<155 339>
AnchorPoint: "blwmark" 360 0 basechar 0
AnchorPoint: "abvmark" 360 500 basechar 0
LayerCount: 2
Back
SplineSet
360 150 m 9
 210 0 l 1
 120 90 l 1
 120 160 l 1
 210 250 l 1
 210 250 232.928594192 225 300 225 c 3
 280.995781714 225 360 225 360 225 c 1033
606 550 m 17
 604 550 540 521 540 472 c 16
 540 423 600 375 600 375 c 9
 600 120 l 1
 480 0 l 25
 360 120 l 1
 360 375 l 17
 210 405 l 1
 120 315 l 1
 150 225 l 1033
EndSplineSet
Fore
SplineSet
670 585 m 1xe0
 606 521 l 2
 605 516 604 512 604 507 c 0xe0
 604 482 620 457 635 439 c 0
 664 410 l 1
 664 155 l 1
 445 -64 l 1
 310 71 l 1
 175 -64 l 1
 56 55 l 1
 56 125 l 1
 104 172 l 1
 86 190 l 1
 56 280 l 1
 245 469 l 1
 395 439 l 1
 424 410 l 1
 424 260 l 1
 424 185 l 1
 424 155 l 1
 515 64 l 1
 536 85 l 1
 536 339 l 1xd0
 521 354 l 2
 503 372 476 404 476 437 c 0
 476 457 486 473 499 486 c 0
 500 486 l 2
 599 585 l 2
 617 603 640 614 641 614 c 2
 670 585 l 1xe0
296 292 m 1
 296 317 l 1
 188 338 l 1
 208 277 l 1
 245 314 l 1
 246 313 l 2
 249 310 262 298 296 292 c 1
296 115 m 1
 296 161 l 1
 281 161 266 161 265 161 c 0
 221 161 196 172 184 179 c 1
 184 125 l 1
 245 64 l 1
 296 115 l 1
EndSplineSet
LCarets2: 1 360 
Ligature2: "Historic ligatures-1" a v
EndChar
StartChar: avslash
Encoding: 42811 42811 861
Width: 720
Flags: W
HStem: 186 128<424 536> 444 20G<225 365> 444 20G<225 365 640.5 661> 594 20G<640.5 661>
VStem: 476 128<418 509.5>
AnchorPoint: "abvmark" 360 500 basechar 0
AnchorPoint: "blwmark" 360 0 basechar 0
LayerCount: 2
Back
SplineSet
360 250 m 25
 660 250 l 1049
360 150 m 9
 210 0 l 1
 120 90 l 1
 120 160 l 1
 210 250 l 1
 210 250 232.928594192 225 300 225 c 3
 280.995781714 225 360 225 360 225 c 1033
606 550 m 17
 604 550 540 521 540 472 c 16
 540 423 600 370 600 370 c 9
 600 120 l 1
 480 0 l 25
 360 120 l 1
 360 375 l 17
 210 400 l 1
 120 310 l 1
 150 220 l 1033
EndSplineSet
Fore
SplineSet
670 585 m 1xd8
 606 521 l 2
 605 516 604 512 604 507 c 0
 604 474 630 440 648 421 c 2
 664 405 l 1
 664 314 l 1
 695 314 l 1
 724 285 l 1
 664 225 l 1
 664 155 l 1
 445 -64 l 1
 310 71 l 1
 175 -64 l 1
 56 55 l 1
 56 125 l 1
 101 170 l 1
 86 185 l 1
 56 275 l 1
 245 464 l 1
 395 439 l 1
 424 410 l 1
 424 314 l 1
 536 314 l 1
 536 335 l 1
 528 342 l 2
 512 358 476 399 476 437 c 0
 476 457 486 473 499 486 c 0
 500 486 l 2
 599 585 l 2
 617 603 640 614 641 614 c 2
 670 585 l 1xd8
296 292 m 1
 296 316 l 1
 188 334 l 1
 207 276 l 1
 245 314 l 1
 246 313 l 2
 249 310 262 298 296 292 c 1
424 185 m 1
 424 155 l 1
 515 64 l 1
 536 85 l 1
 536 186 l 1
 424 186 l 1
 424 185 l 1
296 115 m 1
 296 161 l 1
 281 161 266 161 265 161 c 0
 221 161 196 172 184 179 c 1
 184 125 l 1
 245 64 l 1
 296 115 l 1
EndSplineSet
EndChar
StartChar: kbar
Encoding: 42817 42817 862
Width: 480
Flags: W
HStem: 469 20G<335 375>
VStem: 56 128<85 198 282 411 539 540> 296 128<85 154>
AnchorPoint: "abvmark" 240 700 basechar 0
AnchorPoint: "blwmark" 240 0 basechar 0
LayerCount: 2
Back
SplineSet
240 475 m 25
 30 475 l 1049
320 425 m 25
 400 345 l 1049
80 625 m 25
 160 545 l 1049
80 625 m 25
 160 545 l 1049
120 200 m 1
 360 350 l 9
 360 385 l 1049
240 275 m 1
 360 200 l 1
 360 40 l 1025
320 80 m 25
 400 0 l 1049
80 80 m 25
 160 0 l 1049
80 625 m 25
 160 545 l 1049
120 585 m 9
 120 40 l 1049
EndSplineSet
Fore
SplineSet
256 390 m 1
 355 489 l 1
 395 449 l 1
 424 420 l 1
 464 380 l 1
 366 282 l 1
 395 264 l 1
 424 235 l 1
 424 75 l 1
 464 35 l 1
 365 -64 l 1
 325 -24 l 1
 296 5 l 1
 256 45 l 1
 296 85 l 1
 296 154 l 1
 205 211 l 1
 184 198 l 1
 184 75 l 1
 224 35 l 1
 125 -64 l 1
 85 -24 l 1
 56 5 l 1
 16 45 l 1
 56 85 l 1
 56 165 l 1
 56 411 l 1
 -5 411 l 1
 -34 440 l 1
 56 530 l 1
 56 550 l 1
 16 590 l 1
 115 689 l 1
 155 649 l 1
 184 620 l 1
 224 580 l 1
 184 540 l 1
 184 539 l 1
 275 539 l 1
 304 510 l 1
 205 411 l 1
 184 411 l 1
 184 282 l 1
 295 351 l 1
 256 390 l 1
338 299 m 1
 360 286 l 1
 342 304 l 1
 338 299 l 1
EndSplineSet
EndChar
StartChar: oeloop
Encoding: 42829 42829 867
Width: 660
Flags: W
HStem: 444 20G<255 295 495 545> 444 20G<255 295 495 545>
VStem: 56 128<111.793 245> 296 128<173 288.207>
AnchorPoint: "abvmark" 360 500 basechar 0
AnchorPoint: "blwmark" 360 0 basechar 0
LayerCount: 2
Back
SplineSet
360 80 m 25
 360 280 l 25
 480 400 l 25
 600 320 l 1
 360 80 l 1025
240 400 m 25
 120 280 l 25
 120 120 l 25
 240 0 l 25
 360 120 l 25
 360 280 l 25
 240 400 l 25
EndSplineSet
Fore
SplineSet
424 115 m 1
 325 16 l 1
 296 45 l 1025x30
205 336 m 1
 184 315 l 1
 184 155 l 2
 184 106 248 91 275 64 c 1
 296 85 l 1
 296 245 l 2
 296 294 232 309 205 336 c 1
56 245 m 1
 275 464 l 1
 395 344 l 1
 515 464 l 1xb0
 635 384 l 1
 664 355 l 1
 325 16 l 1
 305 36 l 1
 205 -64 l 1
 56 85 l 1
 56 245 l 1
424 315 m 1
 424 173 l 1
 530 279 l 1
 445 336 l 1
 424 315 l 1
EndSplineSet
EndChar
StartChar: pflourish
Encoding: 42835 42835 869
Width: 600
Flags: W
HStem: -214 21G<-25 15 185 225> 444 20G<215 255 375 415> 444 20G<215 255 375 415>
VStem: 26 128<-74.9001 18.9648> 176 128<-115 -45 157 315> 416 128<155 245>
AnchorPoint: "abvmark" 360 500 basechar 0
LayerCount: 2
Back
SplineSet
240 280 m 25
 360 400 l 1
 480 280 l 25
 480 120 l 1
 360 0 l 1
 360 0 278 100 30 100 c 1
 30 100 90 44 90 0 c 3
 90 -132 30 -150 30 -150 c 1033
200 400 m 25
 280 320 l 1049
240 360 m 1
 240 -150 l 1025
EndSplineSet
Fore
SplineSet
275 424 m 1xdc
 304 395 l 1
 315 384 l 1
 395 464 l 1
 544 315 l 1
 544 155 l 1
 325 -64 l 1
 316 -55 l 2
 313 -52 309 -49 304 -45 c 1
 304 -115 l 1
 205 -214 l 1
 176 -185 l 1
 176 14 l 1
 169 16 162 18 154 20 c 1
 151 -51 130 -85 114 -101 c 2
 15 -200 l 2
 4 -211 -5 -214 -5 -214 c 1
 -34 -185 l 1
 3 -148 l 1
 15 -126 26 -90 26 -35 c 0
 26 -7 2 26 -16 46 c 0
 -20 50 -23 54 -26 57 c 2
 -34 65 l 1
 65 164 l 1
 80 164 94 164 108 163 c 0
 132 162 155 160 176 157 c 1
 176 245 l 1
 176 325 l 1
 136 365 l 1
 235 464 l 1
 275 424 l 1xdc
304 315 m 1
 304 123 l 1
 354 102 381 78 391 68 c 2
 395 64 l 1
 416 85 l 1
 416 245 l 1
 325 336 l 1
 304 315 l 1
EndSplineSet
EndChar
StartChar: rumrotunda
Encoding: 42845 42845 705
Width: 600
Flags: W
HStem: -214 21G<185 226.667> -64 128<405.5 496> 444 20G<135 179> 444 20G<135 179>
LayerCount: 2
Back
SplineSet
360 225 m 1
 420 200 l 1
 420 200 420 139 420 100 c 27
 420 3 240 -150 240 -150 c 1025
540 50 m 17
 540 50 517 0 450 0 c 3
 337 0 300 60 300 60 c 9
 240 0 l 1
 120 180 l 25
 240 300 l 1
 120 400 l 1
 60 340 l 1049
EndSplineSet
Fore
SplineSet
575 114 m 1xe0
 604 85 l 1
 604 85 599 75 588 64 c 2
 489 -35 l 2
 475 -49 451 -64 415 -64 c 0
 396 -64 378 -62 363 -59 c 0
 361 -61 359 -64 357 -66 c 2
 258 -165 l 2
 257 -166 l 2
 227 -196 205 -214 205 -214 c 2
 176 -185 l 1
 275 -86 l 1
 287 -72 299 -56 310 -41 c 1
 293 -32 282 -23 275 -16 c 2
 264 -5 l 1
 205 -64 l 1
 176 -35 l 1
 56 145 l 1
 173 262 l 1
 85 336 l 2
 85 336 31 282 25 276 c 1
 -4 305 l 1
 155 464 l 1
 275 364 l 1
 304 335 l 1
 184 215 l 1
 281 70 l 1
 335 124 l 1
 356 103 l 1
 356 148 l 1
 325 161 l 1
 296 190 l 1
 395 289 l 1
 455 264 l 1
 484 235 l 1
 484 135 l 2
 484 114 476 90 462 65 c 1
 469 64 477 64 485 64 c 0
 507 64 524 69 538 77 c 1
 575 114 l 1xe0
EndSplineSet
EndChar
StartChar: vslash
Encoding: 42847 42847 873
Width: 480
Flags: W
HStem: 444 20G<95 135> 444 20G<95 135 400.5 421> 594 20G<400.5 421>
VStem: 56 128<111.793 147 205 275> 236 128<428.5 509.5> 296 128<155 364.578>
LayerCount: 2
Back
SplineSet
160 320 m 25
 80 400 l 1049
120 360 m 25
 120 120 l 1
 240 0 l 25
 360 120 l 1
 360 370 l 17
 340 408 300 423 300 472 c 8
 300 516 365 550 366 550 c 1033
270 390 m 25
 30 150 l 1049
EndSplineSet
Fore
SplineSet
56 147 m 1xb4
 -5 86 l 1
 -34 115 l 1
 56 205 l 1
 56 325 l 1
 16 365 l 1
 115 464 l 1
 155 424 l 1
 184 395 l 1
 215 364 l 1
 248 397 l 1
 241 408 236 420 236 437 c 0
 236 455 247 471 260 484 c 2
 359 583 l 2
 360 584 l 2
 379 603 400 614 401 614 c 2
 430 585 l 1
 366 521 l 2
 365 517 364 512 364 507 c 0xb8
 364 458 404 443 424 405 c 1
 424 155 l 1
 205 -64 l 1
 56 85 l 1
 56 147 l 1xb4
274 365 m 1
 184 275 l 1
 184 155 l 2
 184 106 248 91 275 64 c 1
 296 85 l 1
 296 335 l 1x34
 290 347 282 356 274 365 c 1
EndSplineSet
EndChar
StartChar: is
Encoding: 42861 42861 957
Width: 540
Flags: W
HStem: -214 128<-111 -1>
VStem: 86 128<-115 109 177 247 314 495>
LayerCount: 2
Back
SplineSet
-150 -200 m 17
 -150 -200 -106 -150 -60 -150 c 8
 -9 -150 9 -200 60 -200 c 24
 100 -200 150 -150 150 -150 c 1
 150 530 l 1
 270 650 l 25
 390 530 l 25
 390 470 l 25
 0 50 l 1049
EndSplineSet
Fore
SplineSet
214 314 m 1
 326 435 l 1
 326 495 l 1
 235 586 l 1
 214 565 l 1
 214 314 l 1
-185 -264 m 1
 -214 -235 l 1
 -214 -235 -212 -232 -209 -229 c 2
 -110 -130 l 2
 -97 -117 -61 -86 -25 -86 c 0
 23 -86 43 -130 86 -135 c 1
 86 109 l 1
 64 85 l 1
 -35 -14 l 1
 -64 15 l 1
 86 177 l 1
 86 495 l 1
 305 714 l 1
 454 565 l 1
 454 505 l 1
 214 247 l 1
 214 -115 l 1
 115 -214 l 1
 115 -214 65 -264 25 -264 c 0
 -26 -264 -44 -214 -95 -214 c 0
 -127 -214 -157 -238 -174 -253 c 2
 -185 -264 l 1
EndSplineSet
EndChar
StartChar: lum
Encoding: 42866 42866 573
Width: 509
Flags: W
HStem: -214 21G<95 136.667> -64 128<315 406>
VStem: 56 128<85 540>
LayerCount: 2
Back
SplineSet
270 225 m 1
 330 200 l 1
 330 200 330 139 330 100 c 27
 330 3 150 -150 150 -150 c 1025
450 50 m 17
 450 50 427 0 360 0 c 3
 247 0 220 60 220 60 c 9
 160 0 l 25
 80 80 l 1025
80 625 m 25
 160 545 l 1049
120 585 m 9
 120 40 l 1049
EndSplineSet
Fore
SplineSet
16 590 m 1
 115 689 l 1
 155 649 l 1
 184 620 l 1
 224 580 l 1
 184 540 l 1
 184 75 l 1
 195 64 l 1
 255 124 l 1
 266 113 l 1
 266 148 l 1
 235 161 l 1
 206 190 l 1
 305 289 l 1
 365 264 l 1
 394 235 l 1
 394 135 l 2
 394 114 386 90 372 65 c 1
 379 64 387 64 395 64 c 0
 417 64 434 69 448 77 c 1
 485 114 l 1
 514 85 l 1
 514 85 509 75 498 64 c 2
 399 -35 l 2
 385 -49 361 -64 325 -64 c 0
 305 -64 288 -62 273 -59 c 0
 271 -61 269 -64 267 -66 c 2
 168 -165 l 2
 167 -166 l 2
 137 -196 115 -214 115 -214 c 2
 86 -185 l 1
 185 -86 l 1
 198 -71 211 -56 222 -40 c 1
 212 -34 204 -28 199 -22 c 2
 183 -6 l 1
 125 -64 l 1
 85 -24 l 1
 56 5 l 1
 16 45 l 1
 56 85 l 1
 56 550 l 1
 16 590 l 1
EndSplineSet
EndChar
StartChar: tum
Encoding: 42871 42871 728
Width: 720
Flags: W
HStem: -214 21G<305 348.889> 286 128<216.922 476> 444 170G<165 205 495 563 692 715> 444 20G<692 715> 594 20G<165 205>
VStem: 86 128<70.7805 297 455 515> 476 128<124.633 290 426 448>
LayerCount: 2
Back
SplineSet
60 400 m 1049,0,0
150 550 m 1,0,0
 150 60 l 1,0,0
 210 0 l 1,0,0
 330 120 l 1025,0,0
480 525 m 1,0,0
 540 500 l 1,0,0
 540 500 540 406 540 250 c 3,0,0
 540 -37.5019531251 360 -150 360 -150 c 1025,0,0
660 400 m 1,0,0
 660 400 622 350 420 350 c 3,0,0
 208 350 60 400 60 400 c 1025,0,0
EndSplineSet
Fore
SplineSet
695 464 m 1xd6
 724 435 l 1
 724 435 724 434 723 433 c 2
 624 334 l 2
 622 332 615 327 604 321 c 1
 604 285 l 2
 604 89 520 -25 467 -78 c 2
 368 -177 l 1
 368 -178 l 2
 343 -203 325 -214 325 -214 c 2
 296 -185 l 1
 380 -101 l 1
 426 -38 476 65 476 215 c 2
 476 290 l 1
 450 288 420 286 385 286 c 0
 322 286 264 291 214 297 c 1
 214 95 l 2
 214 79 236 73 245 64 c 1
 365 184 l 1
 394 155 l 1
 175 -64 l 1
 86 25 l 1
 86 319 l 1
 47 328 25 336 25 336 c 2
 -4 365 l 1
 86 455 l 1
 86 515 l 1
 185 614 l 1xe6
 214 585 l 1
 214 435 l 1
 276 424 359 414 455 414 c 0
 462 414 469 414 476 414 c 1
 476 448 l 1
 445 461 l 1
 416 490 l 1
 515 589 l 1
 575 564 l 1
 604 535 l 1
 604 426 l 1
 660 437 684 454 692 461 c 2
 695 464 l 1xd6
EndSplineSet
EndChar
StartChar: longs_longs_i
Encoding: 60327 60327 331
Width: 780
GlyphClass: 3
Flags: W
HStem: -214 128<-111 -14> 444 20G<635 675> 444 20G<635 675> 476 21G<605 645>
VStem: 86 128<-99.9958 495> 326 128<-115 492.89> 596 128<85 315>
LayerCount: 2
Back
SplineSet
150 -150 m 1
 187 -150 262 -200 300 -200 c 0
 334 -200 390 -150 390 -150 c 1
 390 530 l 1
 510 650 l 17
 510 650 600 600 720 600 c 1
 660 540 l 1025
-150 -200 m 1
 -150 -200 -106 -150 -60 -150 c 8
 -35 -150 33 -200 60 -200 c 24
 86 -200 150 -150 150 -150 c 1
 150 530 l 1
 270 650 l 1
 270 650 337 530 390 530 c 1025
620 400 m 25
 700 320 l 1025
660 360 m 9
 660 40 l 1025
620 80 m 25
 700 0 l 25
 780 80 l 1049
EndSplineSet
Fore
SplineSet
556 365 m 1xde
 655 464 l 1
 695 424 l 1
 724 395 l 1
 764 355 l 1
 724 315 l 1
 724 75 l 1
 735 64 l 1
 815 144 l 1
 844 115 l 1
 665 -64 l 1
 625 -24 l 1
 596 5 l 1
 556 45 l 1
 596 85 l 1
 596 325 l 1
 556 365 l 1xde
-185 -264 m 1
 -214 -235 l 1
 -214 -235 -212 -232 -209 -229 c 2
 -110 -130 l 2
 -97 -117 -61 -86 -25 -86 c 0
 -3 -86 56 -127 86 -135 c 1
 86 495 l 1
 305 714 l 1
 334 685 l 1
 334 685 356 645 384 612 c 0
 398 601 412 594 425 594 c 1
 545 714 l 1
 545 714 635 664 755 664 c 1
 784 635 l 1
 625 476 l 1
 596 505 l 1
 630 539 l 1
 539 550 475 586 475 586 c 1
 454 565 l 1
 454 -115 l 1
 355 -214 l 1
 355 -214 299 -264 265 -264 c 0
 227 -264 152 -214 115 -214 c 1
 115 -214 51 -264 25 -264 c 0
 -2 -264 -70 -214 -95 -214 c 0
 -127 -214 -157 -238 -174 -253 c 2
 -185 -264 l 1
326 476 m 1
 317 481 308 489 300 497 c 2
 271 526 l 2
 255 542 240 562 228 579 c 1
 214 565 l 1
 214 -92 l 1
 250 -104 296 -130 326 -135 c 1
 326 476 l 1
EndSplineSet
LCarets2: 2 360 600 
Ligature2: "Ligatures-1" longs longs i
EndChar
StartChar: c_k
Encoding: 61124 61124 439
Width: 780
Flags: W
HStem: 444 20G<255 295> 464 5G<255 295 635 675>
VStem: 56 128<111.793 245> 356 128<85 87 145 198 383 540> 596 128<85 154>
LayerCount: 2
Back
SplineSet
360 280 m 9
 240 400 l 25
 120 280 l 25
 120 120 l 25
 240 0 l 25
 360 120 l 1041
620 425 m 25
 700 345 l 1049
380 625 m 25
 460 545 l 1049
380 625 m 25
 460 545 l 1049
420 200 m 1
 660 350 l 9
 660 385 l 1049
540 275 m 1
 660 200 l 1
 660 40 l 1025
620 80 m 25
 700 0 l 1049
380 80 m 25
 460 0 l 1049
380 625 m 25
 460 545 l 1049
420 585 m 9
 420 40 l 1049
EndSplineSet
Fore
SplineSet
556 390 m 1xb8
 655 489 l 1
 695 449 l 1
 724 420 l 1
 764 380 l 1
 666 282 l 1
 695 264 l 1
 724 235 l 1
 724 75 l 1
 764 35 l 1
 665 -64 l 1
 625 -24 l 1
 596 5 l 1
 556 45 l 1
 596 85 l 1
 596 154 l 1
 505 211 l 1
 484 198 l 1
 484 75 l 1
 524 35 l 1
 425 -64 l 1
 385 -24 l 1
 356 5 l 1
 316 45 l 1
 356 85 l 1
 356 87 l 1
 205 -64 l 1
 56 85 l 1
 56 245 l 1
 275 464 l 1
 356 383 l 1
 356 550 l 1
 316 590 l 1
 415 689 l 1
 455 649 l 1
 484 620 l 1
 524 580 l 1
 484 540 l 1
 484 282 l 1
 595 351 l 1
 556 390 l 1xb8
638 299 m 1
 660 286 l 1
 642 304 l 1
 638 299 l 1
356 165 m 1
 356 247 l 1
 325 216 l 1
 205 336 l 1
 184 315 l 1
 184 155 l 2
 184 106 248 91 275 64 c 1
 356 145 l 1
 356 165 l 1
EndSplineSet
LCarets2: 1 420 
Ligature2: "Ligatures-1" c k
EndChar
StartChar: f_y
Encoding: 61133 61133 353
Width: 780
GlyphClass: 3
Flags: W
HStem: -214 128<-111 -14 399 502.5> 336 128<214 345> 444 20G<635 675> 526 21G<310 339> 586 68<391.109 416>
VStem: 86 128<-115 336 464 495> 356 128<155 315> 596 128<-115 27 85 315>
LayerCount: 2
Back
SplineSet
700 320 m 25
 620 400 l 1049
360 -200 m 17
 360 -200 404 -150 450 -150 c 8
 488 -150 531 -200 570 -200 c 24
 603 -200 660 -150 660 -150 c 1
 660 360 l 1025
660 120 m 9
 540 0 l 25
 420 120 l 1
 420 360 l 1049
-150 -200 m 17
 -150 -200 -106 -150 -60 -150 c 8
 -35 -150 33 -200 60 -200 c 24
 86 -200 150 -150 150 -150 c 1
 150 530 l 1
 270 650 l 17
 270 650 300 590 360 590 c 24
 388 590 450 650 451 650 c 1033
60 400 m 1
 380 400 l 25
 460 320 l 1025
EndSplineSet
Fore
SplineSet
-185 -264 m 1xdf
 -214 -235 l 1
 -214 -235 -212 -232 -209 -229 c 2
 -110 -130 l 2
 -97 -117 -61 -86 -25 -86 c 0
 -3 -86 56 -127 86 -135 c 1
 86 336 l 1
 25 336 l 1
 -4 365 l 1
 86 455 l 1
 86 495 l 1
 305 714 l 1
 334 685 l 1
 334 685 337 679 343 671 c 0
 357 661 374 654 395 654 c 0
 423 654 485 714 486 714 c 2
 515 685 l 1
 416 586 l 2
 415 586 353 526 325 526 c 0
 295 526 273 541 258 556 c 0
 257 556 l 2
 231 582 l 1
 214 565 l 1
 214 464 l 1xdf
 415 464 l 1
 455 424 l 1
 484 395 l 1
 524 355 l 1
 484 315 l 1
 484 155 l 1
 575 64 l 1
 596 85 l 1
 596 325 l 1
 556 365 l 1
 655 464 l 1xbf
 695 424 l 1
 724 395 l 1
 764 355 l 1
 724 315 l 1
 724 155 l 1
 724 -115 l 1
 625 -214 l 1
 625 -214 568 -264 535 -264 c 0
 496 -264 453 -214 415 -214 c 0
 383 -214 353 -238 336 -253 c 2
 325 -264 l 1
 296 -235 l 1
 296 -235 298 -232 301 -229 c 2
 400 -130 l 2
 413 -117 449 -86 485 -86 c 0
 520 -86 560 -129 596 -135 c 1
 596 27 l 1
 505 -64 l 1
 356 85 l 1
 356 325 l 1
 345 336 l 1
 214 336 l 1
 214 -115 l 1
 115 -214 l 1
 115 -214 51 -264 25 -264 c 0
 -2 -264 -70 -214 -95 -214 c 0
 -127 -214 -157 -238 -174 -253 c 2
 -185 -264 l 1xdf
EndSplineSet
LCarets2: 1 360 
Ligature2: "Ligatures-1" f y
EndChar
StartChar: p_p
Encoding: 61142 61142 689
Width: 720
Flags: W
HStem: -214 21G<65 105 305 345> 444 20G<95 135 255 295 495 535> 444 20G<95 135 255 295 495 535>
VStem: 56 128<-115 -43 124 315> 296 128<-115 -43 111.001 245> 536 128<155 245>
CounterMasks: 1 1c
LayerCount: 2
Back
SplineSet
360 -150 m 1
 360 280 l 9
 480 400 l 1
 600 280 l 25
 600 120 l 1
 480 0 l 1
 480 0 439 60 330 60 c 0
 295 60 240 0 240 0 c 1
 240 0 185 60 150 60 c 0
 115 60 60 0 60 0 c 1025
360 280 m 25
 240 400 l 1
 120 280 l 1049
80 400 m 25
 160 320 l 1049
120 360 m 1
 120 -150 l 1025
EndSplineSet
Fore
SplineSet
155 424 m 1xdc
 184 395 l 1
 195 384 l 1
 275 464 l 1
 395 344 l 1
 515 464 l 1
 664 315 l 1
 664 155 l 1
 445 -64 l 1
 425 -44 l 2
 424 -43 l 2
 424 -115 l 1
 325 -214 l 1
 296 -185 l 1
 296 -4 l 2
 295 -4 l 0
 271 -4 239 -31 221 -48 c 2
 205 -64 l 1
 189 -48 l 2
 187 -46 186 -45 184 -43 c 2
 184 -115 l 1
 85 -214 l 1
 56 -185 l 1
 56 -35 l 1
 50 -40 45 -44 41 -48 c 2
 25 -64 l 1
 -4 -35 l 1
 -4 -35 -2 -32 3 -27 c 2
 56 25 l 1
 56 245 l 1
 56 325 l 1
 16 365 l 1
 115 464 l 1
 155 424 l 1xdc
424 117 m 1
 432 115 439 113 446 111 c 0
 477 100 496 84 506 74 c 2
 516 65 l 1
 536 85 l 1
 536 245 l 1
 445 336 l 1
 424 315 l 1
 424 117 l 1
184 315 m 1
 184 124 l 2
 185 124 l 0
 212 124 252 88 268 72 c 2
 275 64 l 1
 282 72 l 2
 286 76 291 80 296 85 c 1
 296 245 l 1
 205 336 l 1
 184 315 l 1
EndSplineSet
LCarets2: 1 360 
Ligature2: "Historic ligatures-1" p p
EndChar
StartChar: t_t
Encoding: 61145 61145 730
Width: 629
Flags: W
HStem: 336 128<214 326 454 505> 594 20G<165 205 405 445> 594 20G<165 205 405 445>
VStem: 86 128<70.7805 336 464 515> 326 128<70.7805 87 145 336 464 515>
LayerCount: 2
Back
SplineSet
390 550 m 1
 390 60 l 1
 450 0 l 1
 570 120 l 1025
60 400 m 1
 540 400 l 1041
150 550 m 1
 150 60 l 1
 210 0 l 1
 330 120 l 1025
EndSplineSet
Fore
SplineSet
185 614 m 1xd8
 214 585 l 1
 214 464 l 1
 326 464 l 1
 326 515 l 1
 425 614 l 1
 454 585 l 1
 454 464 l 1
 575 464 l 1
 604 435 l 1
 505 336 l 1
 454 336 l 1
 454 95 l 2
 454 79 476 73 485 64 c 1
 605 184 l 1
 634 155 l 1
 415 -64 l 1
 326 25 l 1
 326 87 l 1
 175 -64 l 1
 86 25 l 1
 86 336 l 1
 25 336 l 1
 -4 365 l 1
 86 455 l 1
 86 515 l 1
 185 614 l 1xd8
214 336 m 1
 214 95 l 2
 214 79 236 73 245 64 c 1
 326 145 l 1
 326 336 l 1
 214 336 l 1
EndSplineSet
LCarets2: 1 360 
Ligature2: "Ligatures-1" t t
EndChar
StartChar: a_g
Encoding: 61349 61349 338
Width: 720
GlyphClass: 3
Flags: W
HStem: -214 128<339 436> 444 20G<225 365 495 535 615 655> 444 20G<225 365 495 535 615 655>
VStem: 296 128<115 161 292 315> 536 128<-115 27 85 300>
LayerCount: 2
Back
SplineSet
150 220 m 17
 120 310 l 1
 210 400 l 1
 360 375 l 1
 360 150 l 9
 210 0 l 1
 120 90 l 1
 120 160 l 1
 210 250 l 1
 210 250 232.928594192 225 300 225 c 3
 280.995781714 225 360 225 360 225 c 1033
300 -200 m 17
 300 -200 344 -150 390 -150 c 8
 415 -150 483 -200 510 -200 c 24
 536 -200 600 -150 600 -150 c 9
 600 400 l 1
 600 400 576 352 540 352 c 24
 504 352 480 400 480 400 c 1
 360 280 l 25
 360 120 l 25
 480 0 l 25
 600 120 l 1041
EndSplineSet
Fore
SplineSet
536 300 m 1x98
 527 293 517 288 505 288 c 0
 490 288 476 297 466 307 c 2
 441 332 l 1
 424 315 l 1
 424 185 l 1
 424 155 l 2
 424 106 488 91 515 64 c 1
 536 85 l 1
 536 300 l 1x98
536 27 m 1
 445 -64 l 1
 310 71 l 1
 175 -64 l 1
 56 55 l 1
 56 125 l 1
 101 170 l 1
 86 185 l 1
 56 275 l 1
 245 464 l 1
 395 439 l 1
 424 410 l 1
 424 373 l 1
 515 464 l 1
 544 435 l 1
 544 435 546 430 551 423 c 0
 558 419 566 416 575 416 c 0
 580 416 585 417 590 419 c 2
 635 464 l 1xd8
 664 435 l 1
 664 -115 l 1
 565 -214 l 1
 565 -214 501 -264 475 -264 c 0
 448 -264 380 -214 355 -214 c 0
 323 -214 293 -238 276 -253 c 2
 265 -264 l 1
 236 -235 l 1
 236 -235 238 -232 241 -229 c 2
 340 -130 l 2
 353 -117 389 -86 425 -86 c 0
 447 -86 506 -127 536 -135 c 1
 536 27 l 1
207 276 m 1
 245 314 l 1
 246 313 l 2
 249 310 263 298 296 292 c 1
 296 316 l 1
 188 334 l 1
 207 276 l 1
296 115 m 1
 296 161 l 1
 264 161 l 2
 220 161 196 172 184 179 c 1
 184 125 l 1
 245 64 l 1
 296 115 l 1
EndSplineSet
LCarets2: 1 360 
Ligature2: "Historic ligatures-1" a g
EndChar
StartChar: a_r
Encoding: 61354 61354 343
Width: 600
GlyphClass: 3
Flags: W
HStem: 444 20G<225 365 495 535> 444 20G<225 365 495 535>
VStem: 296 128<115 161 292 315>
LayerCount: 2
Back
SplineSet
150 220 m 17
 120 310 l 1
 210 400 l 1
 360 375 l 1
 360 150 l 9
 210 0 l 1
 120 90 l 1
 120 160 l 1
 210 250 l 1
 210 250 232.928594192 225 300 225 c 3
 280.995781714 225 360 225 360 225 c 1033
450 60 m 25
 390 0 l 1
 360 30 l 1
 360 375 l 1025
540 340 m 25
 480 400 l 25
 360 280 l 1049
EndSplineSet
Fore
SplineSet
604 375 m 1xa0
 505 276 l 1
 445 336 l 1
 424 315 l 1
 424 185 l 1
 424 65 l 1
 425 64 l 1
 485 124 l 1
 514 95 l 1
 355 -64 l 1
 296 -5 l 1
 296 57 l 1
 175 -64 l 1
 56 55 l 1
 56 125 l 1
 101 170 l 1
 86 185 l 1
 56 275 l 1
 245 464 l 1
 395 439 l 1
 424 410 l 1
 424 373 l 1
 515 464 l 1
 604 375 l 1xa0
207 276 m 1
 245 314 l 1
 246 313 l 2
 249 310 263 298 296 292 c 1
 296 316 l 1
 188 334 l 1
 207 276 l 1
296 115 m 1
 296 161 l 1
 264 161 l 2
 220 161 196 172 184 179 c 1
 184 125 l 1
 245 64 l 1
 296 115 l 1
EndSplineSet
LCarets2: 1 360 
Ligature2: "Historic ligatures-1" a r
EndChar
StartChar: l_l
Encoding: 62713 62713 575
Width: 480
Flags: W
VStem: 56 128<85 540> 296 128<85 107 123 540>
LayerCount: 2
Back
SplineSet
320 80 m 25
 400 0 l 25
 480 80 l 1049
320 625 m 25
 400 545 l 1049
360 585 m 9
 360 40 l 1049
80 80 m 25
 160 0 l 25
 240 80 l 1049
80 625 m 25
 160 545 l 1049
120 585 m 9
 120 40 l 1049
EndSplineSet
Fore
SplineSet
16 590 m 1
 115 689 l 1
 155 649 l 1
 184 620 l 1
 224 580 l 1
 184 540 l 1
 184 75 l 1
 195 64 l 1
 275 144 l 1
 296 123 l 1
 296 550 l 1
 256 590 l 1
 355 689 l 1
 395 649 l 1
 424 620 l 1
 464 580 l 1
 424 540 l 1
 424 75 l 1
 435 64 l 1
 515 144 l 1
 544 115 l 1
 365 -64 l 1
 325 -24 l 1
 296 5 l 1
 256 45 l 1
 296 85 l 1
 296 107 l 1
 125 -64 l 1
 85 -24 l 1
 56 5 l 1
 16 45 l 1
 56 85 l 1
 56 550 l 1
 16 590 l 1
EndSplineSet
LCarets2: 1 240 
Ligature2: "Ligatures-1" l l
EndChar
StartChar: longs_longs_t
Encoding: 62719 62719 712
Width: 869
Flags: W
HStem: -214 128<-111 -14>
VStem: 86 128<-99.9958 495> 326 128<-115 492.89> 566 128<95 336 464 508.576>
CounterMasks: 1 70
LayerCount: 2
Back
SplineSet
810 120 m 1
 690 0 l 1
 630 60 l 1
 630 550 l 1
 577 550 510 650 510 650 c 1
 390 530 l 1
 390 -150 l 1
 390 -150 334 -200 300 -200 c 0
 262 -200 187 -150 150 -150 c 1025
540 400 m 25
 780 400 l 1049
-150 -200 m 17
 -150 -200 -106 -150 -60 -150 c 8
 -35 -150 33 -200 60 -200 c 24
 86 -200 150 -150 150 -150 c 1
 150 530 l 1
 270 650 l 1
 270 650 337 530 390 530 c 1025
EndSplineSet
Fore
SplineSet
-185 -264 m 1
 -214 -235 l 1
 -214 -235 -212 -232 -209 -229 c 2
 -110 -130 l 2
 -97 -117 -61 -86 -25 -86 c 0
 -3 -86 56 -127 86 -135 c 1
 86 495 l 1
 305 714 l 1
 334 685 l 1
 334 685 356 645 384 612 c 0
 398 601 412 594 425 594 c 1
 545 714 l 1
 574 685 l 2
 574 685 587 665 607 643 c 0
 625 627 646 614 665 614 c 1
 694 585 l 1
 694 464 l 1
 815 464 l 1
 844 435 l 1
 745 336 l 1
 694 336 l 1
 694 95 l 1
 725 64 l 1
 845 184 l 1
 874 155 l 1
 655 -64 l 1
 566 25 l 1
 566 336 l 1
 505 336 l 1
 476 365 l 1
 566 455 l 1
 566 494 l 1
 551 502 536 515 523 528 c 2
 494 557 l 2
 486 565 478 574 471 582 c 1
 454 565 l 1
 454 -115 l 1
 355 -214 l 1
 355 -214 299 -264 265 -264 c 0
 227 -264 152 -214 115 -214 c 1
 115 -214 51 -264 25 -264 c 0
 -2 -264 -70 -214 -95 -214 c 0
 -127 -214 -157 -238 -174 -253 c 2
 -185 -264 l 1
326 476 m 1
 317 481 308 489 300 497 c 2
 271 526 l 2
 255 542 240 562 228 579 c 1
 214 565 l 1
 214 -92 l 1
 249 -104 296 -130 326 -135 c 1
 326 476 l 1
EndSplineSet
LCarets2: 2 360 600 
Ligature2: "Ligatures-1" longs longs t
EndChar
StartChar: s_t
Encoding: 64262 64262 334
Width: 840
Flags: W
HStem: -4 128<105.5 198.5> 286 129<362.494 536> 444 20G<255 381.531 782 805> 464 130G<255 381.531 615 655 782 805> 594 20G<615 655>
VStem: 536 128<90 287 419 515>
LayerCount: 2
Back
SplineSet
60 0 m 1
 60 0 108 60 150 60 c 24
 192 60 240 0 240 0 c 9
 360 120 l 1
 360 160 l 1
 120 240 l 1
 120 280 l 1
 240 400 l 17
 240 400 329.634476583 350 540 350 c 3
 709.255203672 350 750 400 750 400 c 1033
600 550 m 1
 600 50 l 1
 660 0 l 1
 780 100 l 1025
EndSplineSet
Fore
SplineSet
635 614 m 1xec
 664 585 l 1
 664 419 l 1
 742 430 773 453 782 461 c 2
 785 464 l 1
 814 435 l 1
 814 435 814 435 813 434 c 0
 714 335 l 2
 710 331 696 318 664 307 c 1
 664 90 l 1
 695 64 l 1
 815 164 l 1
 844 135 l 1
 745 36 l 1
 625 -64 l 1
 565 -14 l 1
 536 15 l 1
 536 287 l 1
 526 287 516 286 505 286 c 0
 295 286 205 336 205 336 c 1
 184 315 l 1
 184 294 l 1
 395 224 l 1
 424 195 l 1
 424 155 l 1
 205 -64 l 1
 176 -35 l 1
 176 -35 175 -34 174 -32 c 0
 157 -18 135 -4 115 -4 c 0
 96 -4 76 -16 59 -30 c 2
 25 -64 l 1
 -4 -35 l 1
 -4 -35 2 -27 12 -17 c 2
 111 82 l 2
 112 83 l 0
 130 101 159 124 185 124 c 0
 212 124 240 100 258 82 c 2
 276 65 l 1
 296 85 l 1
 296 106 l 1
 85 176 l 1
 56 205 l 1
 56 245 l 1
 275 464 l 1
 275 464 354 421 536 415 c 1
 536 515 l 1
 635 614 l 1xec
EndSplineSet
LCarets2: 1 480 
Ligature2: "Ligatures-1" s t
EndChar
